<svg width="458" height="73" viewBox="0 0 458 73" fill="none" xmlns="http://www.w3.org/2000/svg">
<rect width="458" height="73" rx="36.5" fill="#7FF139"/>
<path d="M47.3672 34.7305H35.3965V45.1719H49.1602V47H33.2344V21.4062H49.0723V23.252H35.3965V32.9023H47.3672V34.7305ZM55.2422 27.9805L55.3125 31.2324C56.0273 30.0605 56.918 29.1699 57.9844 28.5605C59.0508 27.9395 60.2285 27.6289 61.5176 27.6289C63.5566 27.6289 65.0742 28.2031 66.0703 29.3516C67.0664 30.5 67.5703 32.2227 67.582 34.5195V47H65.4902V34.502C65.4785 32.8027 65.1152 31.5371 64.4004 30.7051C63.6973 29.873 62.5664 29.457 61.0078 29.457C59.707 29.457 58.5527 29.8672 57.5449 30.6875C56.5488 31.4961 55.8105 32.5918 55.3301 33.9746V47H53.2383V27.9805H55.2422ZM72.1875 37.3145C72.1875 34.3379 72.8438 31.9824 74.1562 30.248C75.4805 28.502 77.2734 27.6289 79.5352 27.6289C82.125 27.6289 84.0938 28.6602 85.4414 30.7227L85.5469 27.9805H87.5156V46.6133C87.5156 49.0625 86.8301 51.002 85.459 52.4316C84.0879 53.8613 82.2305 54.5762 79.8867 54.5762C78.5625 54.5762 77.2969 54.2773 76.0898 53.6797C74.8945 53.0938 73.9512 52.3086 73.2598 51.3242L74.4375 50.0586C75.9258 51.8867 77.6953 52.8008 79.7461 52.8008C81.5039 52.8008 82.875 52.2793 83.8594 51.2363C84.8438 50.2051 85.3535 48.7695 85.3887 46.9297V44.5391C84.041 46.4141 82.0781 47.3516 79.5 47.3516C77.2969 47.3516 75.5273 46.4727 74.1914 44.7148C72.8555 42.957 72.1875 40.584 72.1875 37.5957V37.3145ZM74.3145 37.6836C74.3145 40.1094 74.8008 42.0254 75.7734 43.4316C76.7461 44.8262 78.1172 45.5234 79.8867 45.5234C82.4766 45.5234 84.3105 44.3633 85.3887 42.043V33.2012C84.8965 31.9824 84.1875 31.0566 83.2617 30.4238C82.3359 29.7793 81.2227 29.457 79.9219 29.457C78.1523 29.457 76.7754 30.1543 75.791 31.5488C74.8066 32.9316 74.3145 34.9766 74.3145 37.6836ZM95.3555 47H93.2461V20H95.3555V47ZM103.441 47H101.332V27.9805H103.441V47ZM100.963 22.4785C100.963 22.0801 101.092 21.7461 101.35 21.4766C101.607 21.1953 101.959 21.0547 102.404 21.0547C102.85 21.0547 103.201 21.1953 103.459 21.4766C103.729 21.7461 103.863 22.0801 103.863 22.4785C103.863 22.877 103.729 23.2109 103.459 23.4805C103.201 23.75 102.85 23.8848 102.404 23.8848C101.959 23.8848 101.607 23.75 101.35 23.4805C101.092 23.2109 100.963 22.877 100.963 22.4785ZM120.562 42.166C120.562 41.123 120.141 40.2852 119.297 39.6523C118.465 39.0195 117.205 38.5273 115.518 38.1758C113.83 37.8125 112.518 37.4023 111.58 36.9453C110.654 36.4766 109.963 35.9082 109.506 35.2402C109.061 34.5723 108.838 33.7637 108.838 32.8145C108.838 31.3145 109.465 30.0781 110.719 29.1055C111.973 28.1211 113.578 27.6289 115.535 27.6289C117.656 27.6289 119.355 28.1562 120.633 29.2109C121.922 30.2539 122.566 31.6191 122.566 33.3066H120.457C120.457 32.1934 119.988 31.2676 119.051 30.5293C118.125 29.791 116.953 29.4219 115.535 29.4219C114.152 29.4219 113.039 29.7324 112.195 30.3535C111.363 30.9629 110.947 31.7598 110.947 32.7441C110.947 33.6934 111.293 34.4316 111.984 34.959C112.688 35.4746 113.959 35.9492 115.799 36.3828C117.65 36.8164 119.033 37.2793 119.947 37.7715C120.873 38.2637 121.559 38.8555 122.004 39.5469C122.449 40.2383 122.672 41.0762 122.672 42.0605C122.672 43.666 122.021 44.9492 120.721 45.9102C119.432 46.8711 117.744 47.3516 115.658 47.3516C113.443 47.3516 111.645 46.8184 110.262 45.752C108.891 44.6738 108.205 43.3145 108.205 41.6738H110.314C110.396 42.9043 110.912 43.8652 111.861 44.5566C112.822 45.2363 114.088 45.5762 115.658 45.5762C117.123 45.5762 118.307 45.2539 119.209 44.6094C120.111 43.9648 120.562 43.1504 120.562 42.166ZM129.51 31.1973C130.201 30.0605 131.086 29.1816 132.164 28.5605C133.242 27.9395 134.42 27.6289 135.697 27.6289C137.736 27.6289 139.254 28.2031 140.25 29.3516C141.246 30.5 141.75 32.2227 141.762 34.5195V47H139.67V34.502C139.658 32.8027 139.295 31.5371 138.58 30.7051C137.877 29.873 136.746 29.457 135.188 29.457C133.887 29.457 132.732 29.8672 131.725 30.6875C130.729 31.4961 129.99 32.5918 129.51 33.9746V47H127.418V20H129.51V31.1973ZM174.545 39.0195C174.252 41.7148 173.285 43.7773 171.645 45.207C170.016 46.6367 167.842 47.3516 165.123 47.3516C163.225 47.3516 161.543 46.877 160.078 45.9277C158.625 44.9785 157.5 43.6367 156.703 41.9023C155.906 40.1562 155.502 38.1641 155.49 35.9258V32.6035C155.49 30.3301 155.889 28.3145 156.686 26.5566C157.482 24.7988 158.625 23.4453 160.113 22.4961C161.613 21.5352 163.336 21.0547 165.281 21.0547C168.023 21.0547 170.186 21.7988 171.768 23.2871C173.361 24.7637 174.287 26.8086 174.545 29.4219H172.365C171.826 25.0742 169.465 22.9004 165.281 22.9004C162.961 22.9004 161.109 23.7676 159.727 25.502C158.355 27.2363 157.67 29.6328 157.67 32.6914V35.8203C157.67 38.7734 158.338 41.1289 159.674 42.8867C161.021 44.6445 162.838 45.5234 165.123 45.5234C167.385 45.5234 169.09 44.9844 170.238 43.9062C171.387 42.8164 172.096 41.1875 172.365 39.0195H174.545ZM181.664 47H179.555V20H181.664V47ZM199.4 47C199.189 46.4023 199.055 45.5176 198.996 44.3457C198.258 45.3066 197.314 46.0508 196.166 46.5781C195.029 47.0938 193.822 47.3516 192.545 47.3516C190.717 47.3516 189.234 46.8418 188.098 45.8223C186.973 44.8027 186.41 43.5137 186.41 41.9551C186.41 40.1035 187.178 38.6387 188.713 37.5605C190.26 36.4824 192.41 35.9434 195.164 35.9434H198.979V33.7812C198.979 32.4219 198.557 31.3555 197.713 30.582C196.881 29.7969 195.662 29.4043 194.057 29.4043C192.592 29.4043 191.379 29.7793 190.418 30.5293C189.457 31.2793 188.977 32.1816 188.977 33.2363L186.867 33.2188C186.867 31.707 187.57 30.4004 188.977 29.2988C190.383 28.1855 192.111 27.6289 194.162 27.6289C196.283 27.6289 197.953 28.1621 199.172 29.2285C200.402 30.2832 201.035 31.7598 201.07 33.6582V42.6582C201.07 44.498 201.264 45.875 201.65 46.7891V47H199.4ZM192.791 45.4883C194.197 45.4883 195.451 45.1484 196.553 44.4688C197.666 43.7891 198.475 42.8809 198.979 41.7441V37.5605H195.217C193.119 37.584 191.479 37.9707 190.295 38.7207C189.111 39.459 188.52 40.4785 188.52 41.7793C188.52 42.8457 188.912 43.7305 189.697 44.4336C190.494 45.1367 191.525 45.4883 192.791 45.4883ZM218.086 42.166C218.086 41.123 217.664 40.2852 216.82 39.6523C215.988 39.0195 214.729 38.5273 213.041 38.1758C211.354 37.8125 210.041 37.4023 209.104 36.9453C208.178 36.4766 207.486 35.9082 207.029 35.2402C206.584 34.5723 206.361 33.7637 206.361 32.8145C206.361 31.3145 206.988 30.0781 208.242 29.1055C209.496 28.1211 211.102 27.6289 213.059 27.6289C215.18 27.6289 216.879 28.1562 218.156 29.2109C219.445 30.2539 220.09 31.6191 220.09 33.3066H217.98C217.98 32.1934 217.512 31.2676 216.574 30.5293C215.648 29.791 214.477 29.4219 213.059 29.4219C211.676 29.4219 210.562 29.7324 209.719 30.3535C208.887 30.9629 208.471 31.7598 208.471 32.7441C208.471 33.6934 208.816 34.4316 209.508 34.959C210.211 35.4746 211.482 35.9492 213.322 36.3828C215.174 36.8164 216.557 37.2793 217.471 37.7715C218.396 38.2637 219.082 38.8555 219.527 39.5469C219.973 40.2383 220.195 41.0762 220.195 42.0605C220.195 43.666 219.545 44.9492 218.244 45.9102C216.955 46.8711 215.268 47.3516 213.182 47.3516C210.967 47.3516 209.168 46.8184 207.785 45.752C206.414 44.6738 205.729 43.3145 205.729 41.6738H207.838C207.92 42.9043 208.436 43.8652 209.385 44.5566C210.346 45.2363 211.611 45.5762 213.182 45.5762C214.646 45.5762 215.83 45.2539 216.732 44.6094C217.635 43.9648 218.086 43.1504 218.086 42.166ZM236.332 42.166C236.332 41.123 235.91 40.2852 235.066 39.6523C234.234 39.0195 232.975 38.5273 231.287 38.1758C229.6 37.8125 228.287 37.4023 227.35 36.9453C226.424 36.4766 225.732 35.9082 225.275 35.2402C224.83 34.5723 224.607 33.7637 224.607 32.8145C224.607 31.3145 225.234 30.0781 226.488 29.1055C227.742 28.1211 229.348 27.6289 231.305 27.6289C233.426 27.6289 235.125 28.1562 236.402 29.2109C237.691 30.2539 238.336 31.6191 238.336 33.3066H236.227C236.227 32.1934 235.758 31.2676 234.82 30.5293C233.895 29.791 232.723 29.4219 231.305 29.4219C229.922 29.4219 228.809 29.7324 227.965 30.3535C227.133 30.9629 226.717 31.7598 226.717 32.7441C226.717 33.6934 227.062 34.4316 227.754 34.959C228.457 35.4746 229.729 35.9492 231.568 36.3828C233.42 36.8164 234.803 37.2793 235.717 37.7715C236.643 38.2637 237.328 38.8555 237.773 39.5469C238.219 40.2383 238.441 41.0762 238.441 42.0605C238.441 43.666 237.791 44.9492 236.49 45.9102C235.201 46.8711 233.514 47.3516 231.428 47.3516C229.213 47.3516 227.414 46.8184 226.031 45.752C224.66 44.6738 223.975 43.3145 223.975 41.6738H226.084C226.166 42.9043 226.682 43.8652 227.631 44.5566C228.592 45.2363 229.857 45.5762 231.428 45.5762C232.893 45.5762 234.076 45.2539 234.979 44.6094C235.881 43.9648 236.332 43.1504 236.332 42.166ZM260.15 43.8359L260.291 44.3809L260.449 43.8359L268.5 21.4062H270.873L261.346 47H259.271L249.744 21.4062H252.1L260.15 43.8359ZM272.191 37.209C272.191 35.3809 272.543 33.7344 273.246 32.2695C273.961 30.8047 274.963 29.668 276.252 28.8594C277.553 28.0391 279.023 27.6289 280.664 27.6289C283.195 27.6289 285.246 28.5195 286.816 30.3008C288.387 32.0703 289.172 34.4199 289.172 37.3496V37.7891C289.172 39.6289 288.814 41.2871 288.1 42.7637C287.396 44.2285 286.4 45.3594 285.111 46.1562C283.822 46.9531 282.352 47.3516 280.699 47.3516C278.18 47.3516 276.129 46.4668 274.547 44.6973C272.977 42.916 272.191 40.5605 272.191 37.6309V37.209ZM274.301 37.7891C274.301 40.0625 274.887 41.9316 276.059 43.3965C277.242 44.8496 278.789 45.5762 280.699 45.5762C282.598 45.5762 284.133 44.8496 285.305 43.3965C286.488 41.9316 287.08 40.0039 287.08 37.6133V37.209C287.08 35.7559 286.811 34.4258 286.271 33.2188C285.732 32.0117 284.977 31.0801 284.004 30.4238C283.031 29.7559 281.918 29.4219 280.664 29.4219C278.789 29.4219 277.26 30.1602 276.076 31.6367C274.893 33.1016 274.301 35.0234 274.301 37.4023V37.7891ZM300.562 45.5762C302.027 45.5762 303.252 45.166 304.236 44.3457C305.232 43.5137 305.771 42.4414 305.854 41.1289H307.875C307.816 42.2891 307.453 43.3496 306.785 44.3105C306.117 45.2598 305.227 46.0039 304.113 46.543C303.012 47.082 301.828 47.3516 300.562 47.3516C298.066 47.3516 296.086 46.4844 294.621 44.75C293.168 43.0156 292.441 40.6836 292.441 37.7539V37.1211C292.441 35.2461 292.77 33.5879 293.426 32.1465C294.082 30.7051 295.02 29.5918 296.238 28.8066C297.469 28.0215 298.904 27.6289 300.545 27.6289C302.631 27.6289 304.348 28.25 305.695 29.4922C307.055 30.7344 307.781 32.3691 307.875 34.3965H305.854C305.76 32.9082 305.221 31.707 304.236 30.793C303.264 29.8789 302.033 29.4219 300.545 29.4219C298.646 29.4219 297.17 30.1074 296.115 31.4785C295.072 32.8496 294.551 34.7715 294.551 37.2441V37.8594C294.551 40.2852 295.072 42.1777 296.115 43.5371C297.17 44.8965 298.652 45.5762 300.562 45.5762ZM324.1 47C323.889 46.4023 323.754 45.5176 323.695 44.3457C322.957 45.3066 322.014 46.0508 320.865 46.5781C319.729 47.0938 318.521 47.3516 317.244 47.3516C315.416 47.3516 313.934 46.8418 312.797 45.8223C311.672 44.8027 311.109 43.5137 311.109 41.9551C311.109 40.1035 311.877 38.6387 313.412 37.5605C314.959 36.4824 317.109 35.9434 319.863 35.9434H323.678V33.7812C323.678 32.4219 323.256 31.3555 322.412 30.582C321.58 29.7969 320.361 29.4043 318.756 29.4043C317.291 29.4043 316.078 29.7793 315.117 30.5293C314.156 31.2793 313.676 32.1816 313.676 33.2363L311.566 33.2188C311.566 31.707 312.27 30.4004 313.676 29.2988C315.082 28.1855 316.811 27.6289 318.861 27.6289C320.982 27.6289 322.652 28.1621 323.871 29.2285C325.102 30.2832 325.734 31.7598 325.77 33.6582V42.6582C325.77 44.498 325.963 45.875 326.35 46.7891V47H324.1ZM317.49 45.4883C318.896 45.4883 320.15 45.1484 321.252 44.4688C322.365 43.7891 323.174 42.8809 323.678 41.7441V37.5605H319.916C317.818 37.584 316.178 37.9707 314.994 38.7207C313.811 39.459 313.219 40.4785 313.219 41.7793C313.219 42.8457 313.611 43.7305 314.396 44.4336C315.193 45.1367 316.225 45.4883 317.49 45.4883ZM346.705 37.6836C346.705 40.6484 346.049 43.0039 344.736 44.75C343.424 46.4844 341.66 47.3516 339.445 47.3516C336.797 47.3516 334.793 46.3672 333.434 44.3984L333.346 47H331.377V20H333.469V30.7402C334.805 28.666 336.785 27.6289 339.41 27.6289C341.66 27.6289 343.436 28.4902 344.736 30.2129C346.049 31.9238 346.705 34.3086 346.705 37.3672V37.6836ZM344.596 37.3145C344.596 34.8066 344.109 32.873 343.137 31.5137C342.164 30.1426 340.793 29.457 339.023 29.457C337.676 29.457 336.533 29.791 335.596 30.459C334.658 31.1152 333.949 32.082 333.469 33.3594V41.9375C334.523 44.3281 336.387 45.5234 339.059 45.5234C340.793 45.5234 342.146 44.8379 343.119 43.4668C344.104 42.0957 344.596 40.0449 344.596 37.3145ZM363.598 44.5918C362.332 46.4316 360.311 47.3516 357.533 47.3516C355.506 47.3516 353.965 46.7656 352.91 45.5938C351.855 44.4102 351.316 42.6641 351.293 40.3555V27.9805H353.385V40.0918C353.385 43.7129 354.85 45.5234 357.779 45.5234C360.826 45.5234 362.754 44.2637 363.562 41.7441V27.9805H365.672V47H363.633L363.598 44.5918ZM373.512 47H371.402V20H373.512V47ZM391.248 47C391.037 46.4023 390.902 45.5176 390.844 44.3457C390.105 45.3066 389.162 46.0508 388.014 46.5781C386.877 47.0938 385.67 47.3516 384.393 47.3516C382.564 47.3516 381.082 46.8418 379.945 45.8223C378.82 44.8027 378.258 43.5137 378.258 41.9551C378.258 40.1035 379.025 38.6387 380.561 37.5605C382.107 36.4824 384.258 35.9434 387.012 35.9434H390.826V33.7812C390.826 32.4219 390.404 31.3555 389.561 30.582C388.729 29.7969 387.51 29.4043 385.904 29.4043C384.439 29.4043 383.227 29.7793 382.266 30.5293C381.305 31.2793 380.824 32.1816 380.824 33.2363L378.715 33.2188C378.715 31.707 379.418 30.4004 380.824 29.2988C382.23 28.1855 383.959 27.6289 386.01 27.6289C388.131 27.6289 389.801 28.1621 391.02 29.2285C392.25 30.2832 392.883 31.7598 392.918 33.6582V42.6582C392.918 44.498 393.111 45.875 393.498 46.7891V47H391.248ZM384.639 45.4883C386.045 45.4883 387.299 45.1484 388.4 44.4688C389.514 43.7891 390.322 42.8809 390.826 41.7441V37.5605H387.064C384.967 37.584 383.326 37.9707 382.143 38.7207C380.959 39.459 380.367 40.4785 380.367 41.7793C380.367 42.8457 380.76 43.7305 381.545 44.4336C382.342 45.1367 383.373 45.4883 384.639 45.4883ZM407.332 29.7734C406.887 29.6914 406.412 29.6504 405.908 29.6504C404.596 29.6504 403.482 30.0195 402.568 30.7578C401.666 31.4844 401.021 32.5449 400.635 33.9395V47H398.543V27.9805H400.6L400.635 31.0039C401.748 28.7539 403.535 27.6289 405.996 27.6289C406.582 27.6289 407.045 27.7051 407.385 27.8574L407.332 29.7734ZM417.018 43.9766L422.572 27.9805H424.84L416.719 50.2344L416.297 51.2188C415.254 53.5273 413.643 54.6816 411.463 54.6816C410.959 54.6816 410.42 54.5996 409.846 54.4355L409.828 52.6953L410.918 52.8008C411.949 52.8008 412.781 52.543 413.414 52.0273C414.059 51.5234 414.604 50.6504 415.049 49.4082L415.98 46.8418L408.809 27.9805H411.111L417.018 43.9766Z" fill="white"/>
</svg>
