<svg width="130" height="186" viewBox="0 0 130 186" fill="none" xmlns="http://www.w3.org/2000/svg">
<path d="M2.5 180.602V183.102H5H65.9058C84.942 183.102 100.044 178.505 110.857 168.969C121.693 159.412 127.02 146.299 127.02 129.947C127.02 119.185 124.11 109.802 118.207 101.926C113.56 95.5754 107.547 90.8717 100.228 87.8122C106.119 84.4911 111 80.2639 114.827 75.1163L114.832 75.1102L114.836 75.104C119.828 68.3048 122.316 60.5051 122.316 51.7949C122.316 35.8058 117.293 23.3526 106.929 14.8865C96.7286 6.48786 81.7447 2.5 62.4082 2.5H5H2.5V5V180.602ZM85.7781 70.3732L85.7718 70.3783L85.7656 70.3836C80.3017 74.9732 72.8463 77.396 63.1318 77.396H30.6562V26.5557H62.4082C73.6615 26.5557 81.5614 28.7331 86.5526 32.6548L86.5614 32.6616L86.5702 32.6684C91.3828 36.3811 94.0396 42.504 94.0396 51.6743C94.0396 59.6931 91.2573 65.8312 85.7781 70.3732ZM66.3882 159.167H30.6562V100.969H66.75C77.9119 100.969 85.8171 103.54 90.9277 108.239C95.9985 112.902 98.7432 120.057 98.7432 130.188C98.7432 139.416 95.8209 146.409 90.1662 151.484C84.5562 156.51 76.7328 159.167 66.3882 159.167Z" fill="white" stroke="white" stroke-width="5"/>
</svg>
