<svg width="69" height="69" viewBox="0 0 69 69" fill="none" xmlns="http://www.w3.org/2000/svg">
<path d="M52.3661 10.3338L25.8295 35.8962V42.989H32.9284L58.5152 16.4768L52.3661 10.3338ZM52.4209 0.00608844C53.5188 0.00608844 54.6188 0.426177 55.4549 1.26432L67.5928 13.3901C67.9912 13.7881 68.3072 14.2608 68.5228 14.781C68.7384 15.3012 68.8494 15.8589 68.8494 16.422C68.8494 16.9851 68.7384 17.5428 68.5228 18.063C68.3072 18.5832 67.9912 19.0559 67.5928 19.4539L36.5834 51.5836H17.2269V32.2433L49.387 1.25824C49.7853 0.860583 50.2581 0.545324 50.7783 0.330475C51.2986 0.115625 51.856 0.00539662 52.4189 0.00608844H52.4209ZM60.2463 47.2853C60.2463 46.1442 60.6996 45.0499 61.5065 44.2431C62.3133 43.4362 63.4076 42.9829 64.5487 42.9829C65.6897 42.9829 66.7841 43.4362 67.5909 44.2431C68.3978 45.0499 68.851 46.1442 68.851 47.2853V64.4785C68.8505 65.6192 68.397 66.713 67.5902 67.5194C66.7834 68.3258 65.6894 68.7788 64.5487 68.7788H4.31981C3.17911 68.7788 2.08509 68.3258 1.2783 67.5194C0.471514 66.713 0.0179941 65.6192 0.0174561 64.4785V4.30641C0.0174561 1.92997 1.94337 0.00405903 4.31981 0.00405903H21.5292C22.1094 -0.02116 22.6887 0.0713362 23.2321 0.275974C23.7756 0.480613 24.272 0.793157 24.6915 1.19477C25.1109 1.59639 25.4448 2.07877 25.6728 2.61284C25.9008 3.14692 26.0184 3.72163 26.0184 4.30235C26.0184 4.88308 25.9008 5.45779 25.6728 5.99186C25.4448 6.52593 25.1109 7.00831 24.6915 7.40993C24.272 7.81155 23.7756 8.12409 23.2321 8.32873C22.6887 8.53337 22.1094 8.62587 21.5292 8.60065H10.7733C10.2032 8.60065 9.65631 8.82701 9.25294 9.22999C8.84958 9.63298 8.6227 10.1796 8.62216 10.7498V58.031C8.62216 59.2182 9.5841 60.1802 10.7733 60.1802H58.0952C58.6657 60.1802 59.2128 59.9535 59.6163 59.5501C60.0197 59.1467 60.2463 58.5995 60.2463 58.029V47.2853Z" fill="white"/>
</svg>
