<svg width="160" height="160" viewBox="0 0 160 160" fill="none" xmlns="http://www.w3.org/2000/svg">
<path fill-rule="evenodd" clip-rule="evenodd" d="M116 52.5C116 52.7752 116.056 53 116.125 53C116.194 53 116.25 52.7752 116.25 52.5C116.25 52.2252 116.194 52 116.125 52C116.056 52 116 52.2252 116 52.5ZM126.079 52.1888C125.985 52.4348 126.121 53.1076 126.286 53.2096C126.37 53.2616 126.387 53.1232 126.336 52.8084C126.29 52.5276 126.315 52.26 126.394 52.164C126.497 52.0408 126.484 52 126.341 52C126.237 52 126.119 52.0848 126.079 52.1888ZM118 52.7268V53.1252H117C116.083 53.1252 116 53.146 116 53.3752C116 53.604 116.083 53.6252 117 53.6252C117.583 53.6252 118 53.6772 118 53.75C118 53.8248 117.506 53.8752 116.768 53.8752C116.091 53.8752 115.191 53.9112 114.768 53.9552C114.041 54.0312 114 54.0212 114 53.768C114 53.5832 113.922 53.5 113.75 53.5C113.56 53.5 113.5 53.4168 113.5 53.1556C113.5 52.7128 112.64 52.3516 112.536 52.7504C112.503 52.8768 112.314 53.006 112.098 53.0492C111.784 53.112 111.745 53.1556 111.87 53.3068C111.954 53.4072 111.98 53.5568 111.929 53.6392C111.861 53.7484 111.918 53.7648 112.137 53.7C112.944 53.46 113.5 53.4812 113.5 53.7516C113.5 54.16 111.761 54.0732 111.553 53.6544L111.413 53.3716L111.081 53.7032C110.856 53.928 110.787 54.082 110.868 54.1792C110.948 54.276 110.909 54.3716 110.748 54.472C110.55 54.596 110.522 54.5896 110.58 54.4356C110.625 54.3208 110.578 54.25 110.458 54.25C110.206 54.25 110.078 54.4604 110.28 54.542C110.368 54.5772 110.333 54.6096 110.199 54.6152C110.068 54.6204 109.777 54.7656 109.551 54.9376C109.326 55.1092 109.095 55.25 109.038 55.25C108.982 55.25 108.795 55.3784 108.624 55.5348C108.452 55.6916 108.031 55.982 107.688 56.1804C107.344 56.3788 107.034 56.5784 107 56.6248C106.901 56.758 104.736 58.1696 104.219 58.4384C103.961 58.5724 103.75 58.7188 103.75 58.764C103.75 58.8088 103.652 58.8796 103.531 58.9212C103.411 58.9624 103.144 59.1016 102.938 59.2304C102.494 59.5064 99.6116 61.168 98.6172 61.72C97.5584 62.3084 93.2208 64.4932 91.8124 65.148C90.1712 65.9108 89.1308 66.3752 89.0624 66.3752C89.0316 66.3752 88.682 66.5232 88.2848 66.7044C86.2504 67.6316 85.3656 68 85.1716 68C85.0772 68 85 68.0564 85 68.1252C85 68.1936 84.9296 68.2504 84.8436 68.2512C84.5216 68.2536 80.9204 69.8232 80.9604 69.9436C80.9856 70.0188 80.8012 70.05 80.5012 70.0216C80.06 69.9796 80 70.0052 80 70.2368C80 70.3916 79.92 70.5 79.806 70.5C79.6992 70.5 79.4048 70.6408 79.152 70.8124C78.8988 70.9844 78.5364 71.1252 78.346 71.1252C78.1556 71.1252 78 71.1856 78 71.26C78 71.348 78.1416 71.3628 78.4064 71.3024C78.6296 71.2516 78.9252 71.2 79.0624 71.1884C79.2 71.1764 79.3068 71.1152 79.3 71.052C79.278 70.848 79.6772 70.6332 80.0864 70.6288C80.3056 70.6268 80.5172 70.5732 80.5564 70.5096C80.804 70.1096 82.6572 70.5936 83.014 71.1516C83.056 71.2176 83.1284 71.2624 83.1744 71.2516C83.2632 71.2308 84.306 71.6856 84.6252 71.8844C84.728 71.9488 85.0656 72.1276 85.3752 72.282C85.6844 72.4364 85.9656 72.5972 86 72.6396C86.0344 72.6816 86.188 72.7556 86.3412 72.8032C86.4944 72.8512 86.6072 72.9404 86.5912 73.002C86.5756 73.0632 86.7592 73.2192 87 73.3484C88.0936 73.9348 88.3748 74.1152 89.4788 74.9376C90.1248 75.4188 90.7456 75.8688 90.858 75.9376C91.128 76.1028 91.6348 76.542 92.4788 77.3436C92.8588 77.7048 93.18 78 93.1924 78C93.3232 78 94.1252 78.9064 94.1252 79.054C94.1252 79.3888 97.2324 78.5504 99.1876 77.6884C99.3936 77.5976 100.077 77.3256 100.705 77.084C102.689 76.322 106.584 74.4528 107.838 73.6608C108.195 73.4348 108.513 73.25 108.544 73.25C108.689 73.25 112.043 71.1048 112.25 70.8792C112.284 70.8416 112.762 70.4776 113.312 70.0696C115.392 68.5276 119.162 64.9664 120.267 63.5C120.448 63.2592 120.722 62.922 120.875 62.75C121.028 62.578 121.243 62.2968 121.352 62.1252C121.461 61.9532 121.82 61.4672 122.15 61.0448C122.48 60.6224 122.75 60.2148 122.75 60.1384C122.75 60.0624 122.792 60 122.844 60C122.896 60 123.014 59.83 123.106 59.6224C123.198 59.4144 123.342 59.1752 123.425 59.0908C123.588 58.9264 123.68 58.76 124.514 57.1252C124.811 56.5408 125.092 56.0344 125.138 56C125.309 55.8712 125.762 54.7728 125.786 54.4244C125.811 54.084 125.782 54.0604 125.288 54.0244C124.898 53.996 124.743 53.9236 124.685 53.7432C124.586 53.4292 124.413 53.4324 124.312 53.75C124.239 53.9804 124.123 54 122.829 54C121.878 54 121.372 54.0504 121.259 54.1564C121.127 54.2812 121.082 54.2812 121.036 54.1564C121.004 54.0676 120.767 54 120.49 54C120.22 54 120 53.9436 120 53.8752C120 53.8064 119.775 53.75 119.5 53.75C119.225 53.75 119 53.6936 119 53.6252C119 53.5564 119.225 53.5 119.5 53.5C119.775 53.5 120 53.4436 120 53.3752C120 53.3064 119.775 53.25 119.5 53.25C119.225 53.25 119 53.1936 119 53.1252C119 53.0564 118.933 53 118.85 53C118.768 53 118.544 52.8488 118.35 52.664L118 52.3284V52.7268ZM119 52.8752C119 52.9436 119.225 53 119.5 53C119.775 53 120 52.9436 120 52.8752C120 52.8064 119.775 52.75 119.5 52.75C119.225 52.75 119 52.8064 119 52.8752ZM79.7008 71.698C79.654 71.8196 79.682 71.8768 79.7732 71.8464C79.9604 71.784 80.0632 71.5 79.8988 71.5C79.8316 71.5 79.7424 71.5892 79.7008 71.698ZM76.4632 72.2516C76.422 72.4096 76.4748 72.5444 76.6052 72.614C76.7752 72.7048 76.8148 72.6592 76.826 72.3624C76.8412 71.9476 76.5648 71.8632 76.4632 72.2516ZM73.1252 74.2028C73.1252 74.3688 73.1588 74.3776 73.3124 74.25C73.4156 74.1644 73.5 74.0732 73.5 74.0472C73.5 74.0212 73.4156 74 73.3124 74C73.2092 74 73.1252 74.0912 73.1252 74.2028ZM67.3048 79.2312C65.9488 80.5252 63.5324 84.0136 62.5296 86.1252C61.8668 87.5196 61.1252 89.3704 61.1252 89.6284C61.1252 89.7412 61.0848 89.8736 61.0356 89.9228C60.8668 90.0912 60.5164 91.462 60.1528 93.3752C59.0324 99.2712 59.6484 106.684 61.8292 113.546C62.5116 115.694 62.76 116.446 62.8668 116.688C62.928 116.825 63.1892 117.499 63.4476 118.186C63.706 118.873 63.9428 119.36 63.9732 119.268C64.004 119.176 63.966 118.979 63.8892 118.832C63.7348 118.535 63.0308 116.589 62.5484 115.125C62.3784 114.609 62.1932 114.075 62.1364 113.938C62.0796 113.8 61.9692 113.434 61.8908 113.125C60.7144 108.487 60.6716 108.299 60.4332 106.75C60.322 106.028 60.1816 105.241 60.1216 105C59.7564 103.542 59.764 95.3868 60.1312 94.9332C60.1888 94.862 60.3 94.4404 60.3788 93.9956C60.6692 92.354 60.7356 92.0512 60.9188 91.5424C61.0216 91.2564 61.0728 90.9892 61.032 90.9488C60.9916 90.9084 61.0484 90.8752 61.1588 90.8752C61.2724 90.8752 61.3528 90.78 61.3444 90.6564C61.3184 90.2788 61.502 89.7364 61.6292 89.8148C61.7076 89.8636 61.7064 89.9732 61.6256 90.124C61.5336 90.2956 61.5504 90.4076 61.688 90.5448C61.7908 90.648 61.8664 90.8348 61.8552 90.96C61.8444 91.0852 61.8508 91.3 61.87 91.4376C61.918 91.7856 62.0908 91.0904 62.1104 90.4688C62.1344 89.7048 62.8392 89.76 62.9084 90.5312L62.9564 91.0624L62.978 90.5312L63 90H63.9928C65.042 90 65.3752 90.1872 65.3752 90.778C65.3752 90.9328 65.4716 91 65.6944 91C66 91 66.0056 90.9876 65.8196 90.722C65.4352 90.1732 65.5532 90 66.3124 90C66.6908 90 67 90.0564 67 90.1252C67 90.1936 67.0844 90.25 67.1876 90.25C67.2908 90.25 67.3752 90.1936 67.3752 90.1252C67.3752 90.0564 67.5156 90 67.6876 90C67.986 90 68 90.0332 68 90.75V91.5H68.5C68.9168 91.5 69 91.4584 69 91.25C69 91.0416 69.0832 91 69.5 91C69.9168 91 70 91.0416 70 91.25C70 91.4584 70.0832 91.5 70.5 91.5C70.9168 91.5 71 91.5416 71 91.75C71 91.8876 71.0564 92 71.1252 92C71.1936 92 71.25 91.7752 71.25 91.5C71.25 91.0832 71.2916 91 71.5 91C71.7084 91 71.75 91.0832 71.75 91.5C71.75 91.7752 71.8064 92 71.8752 92C71.948 92 72 91.5832 72 91V90H73.1876C74.1192 90 74.3752 90.0376 74.3752 90.174C74.3752 90.338 74.6288 90.5 74.8852 90.5C74.9484 90.5 75 90.3876 75 90.25C75 90.1124 75.0564 90 75.1252 90C75.1936 90 75.25 90.2252 75.25 90.5C75.25 90.9168 75.2916 91 75.5 91C75.7084 91 75.75 90.9168 75.75 90.5C75.75 90.124 75.8 90 75.9508 90C76.0812 90 76.1256 90.0684 76.0772 90.194C76.0348 90.3052 76.0556 90.3556 76.1264 90.3116C76.1944 90.2696 76.25 90.2828 76.25 90.3412C76.25 90.3992 76.3624 90.4552 76.5 90.4656C76.6704 90.4784 76.75 90.4076 76.75 90.2424C76.75 89.9512 76.9772 89.9204 77.0836 90.1972C77.1316 90.3228 77.0196 90.5224 76.7756 90.7452C76.5468 90.954 76.3576 91.278 76.3072 91.5476C76.2604 91.7964 76.172 92 76.1112 92C76.05 92 76 92.0872 76 92.1936C76 92.3 75.8556 92.5208 75.6792 92.6844C75.5024 92.848 75.366 93 75.3752 93.022C75.3936 93.0648 75.1612 93.7272 75.054 93.9376C74.906 94.228 74.668 94.61 74.5368 94.768C74.4596 94.8612 74.4004 94.9656 74.4052 95C74.4248 95.1424 74.068 96 73.9888 96C73.9416 96 73.8636 96.2108 73.8152 96.4688C73.7672 96.7264 73.682 96.9936 73.626 97.0624C73.36 97.3892 72.1516 101.514 71.9964 102.625C71.9436 103.003 71.8064 103.791 71.692 104.375C71.0364 107.72 70.8928 114.005 71.3696 118.5C71.6048 120.717 71.7904 121.942 71.9088 122.062C71.9896 122.144 72.0024 121.994 71.9456 121.625C71.0284 115.642 71.0812 107.854 72.07 103.375C72.1836 102.859 72.3256 102.212 72.3852 101.938C72.4444 101.662 72.5832 101.128 72.6928 100.75C72.8024 100.372 72.936 99.8936 72.9888 99.6876C73.156 99.0384 73.7792 97.3176 73.892 97.1936C73.9516 97.1284 74 96.9948 74 96.8972C74 96.524 75.6232 93.366 76.5196 91.9952C77.9 89.8848 80.2368 87.1004 80.7704 86.9312C80.8968 86.8908 81 86.8056 81 86.7416C81 86.574 80.4524 86.5976 80.2772 86.7728C80.1956 86.8544 80.0876 86.8792 80.0368 86.8288C79.9864 86.778 80.0112 86.6952 80.0928 86.6448C80.2704 86.5352 80.156 86.0008 79.954 85.9984C79.8764 85.9972 79.5592 85.7736 79.25 85.5016C78.4604 84.8068 78.4716 84.8156 77.9276 84.4572C77.658 84.2796 77.1964 83.9632 76.902 83.7544C76.6072 83.5456 76.3148 83.3752 76.2516 83.3752C76.1888 83.3752 76.0924 83.3008 76.0376 83.21C75.9824 83.1188 75.6844 82.918 75.3752 82.7628C75.0656 82.608 74.4752 82.2888 74.0624 82.054C73.65 81.8188 73.172 81.57 73 81.5008C72.828 81.4316 72.6032 81.3184 72.5 81.2492C72.3968 81.18 72.228 81.0896 72.1252 81.048C72.022 81.0068 71.7124 80.8744 71.4376 80.7536C71.1624 80.6332 70.7264 80.466 70.4688 80.3824C70.2108 80.2988 70 80.1788 70 80.1152C70 80.052 69.8608 80 69.6908 80C69.5208 80 69.1412 79.8936 68.8472 79.7636C68.5532 79.634 68.1436 79.4752 67.9376 79.4108C67.7312 79.3468 67.5764 79.2284 67.5936 79.1472C67.6364 78.9472 67.588 78.9612 67.3048 79.2312ZM78.2868 88.6268C78.3296 88.7908 78.2724 88.9212 78.122 89.0016C77.844 89.1504 77.6204 89.164 77.85 89.018C77.9392 88.9612 78.0216 88.7936 78.0328 88.6452C78.0584 88.3052 78.2 88.2952 78.2868 88.6268ZM61.978 89.7812C61.9596 90.4484 61.9492 90.4804 61.9072 90.002C61.88 89.694 61.7912 89.3984 61.71 89.346C61.5864 89.2656 61.7756 89.0136 61.9688 89.002C61.986 89.0008 61.99 89.3516 61.978 89.7812ZM63.6564 90.6288C63.28 90.78 63.2984 91 63.6876 91C63.9168 91 64 90.9332 64 90.75C64 90.6124 63.986 90.5036 63.9688 90.508C63.9516 90.5124 63.8108 90.5668 63.6564 90.6288ZM74.5 92.1252C74.5 92.1936 74.5844 92.25 74.6876 92.25C74.7908 92.25 74.8752 92.1936 74.8752 92.1252C74.8752 92.0564 74.7908 92 74.6876 92C74.5844 92 74.5 92.0564 74.5 92.1252ZM61.25 92.6252C61.25 92.7624 61.3064 92.8752 61.3752 92.8752C61.4436 92.8752 61.5 92.7624 61.5 92.6252C61.5 92.4876 61.4436 92.3752 61.3752 92.3752C61.3064 92.3752 61.25 92.4876 61.25 92.6252ZM64 119.655C64 119.748 64.0472 119.878 64.1048 119.944C64.1628 120.009 64.2856 120.259 64.378 120.5C64.4704 120.741 64.7608 121.405 65.0232 121.976C65.2856 122.548 65.5 123.04 65.5 123.072C65.5 123.119 66.9872 126.113 67.6884 127.476C67.8052 127.704 67.9292 127.862 67.9632 127.828C68.036 127.756 66.2324 124.082 66.0936 124.021C66.042 123.998 66 123.905 66 123.815C66 123.724 65.8312 123.31 65.6252 122.895C65.4188 122.479 65.25 122.109 65.25 122.072C65.25 122.035 65.0252 121.524 64.75 120.938C64.4752 120.35 64.25 119.818 64.25 119.755C64.25 119.692 64.1936 119.605 64.1252 119.562C64.0564 119.52 64 119.562 64 119.655ZM72.0576 123C72.1144 124.134 72.7312 127.239 73.4984 130.25C74.0836 132.548 75.2704 136.546 75.632 137.438C75.688 137.575 75.7992 137.912 75.8792 138.188C75.9596 138.462 76.1036 138.847 76.2 139.041C76.2964 139.236 76.3752 139.5 76.3752 139.628C76.3752 139.756 76.4292 139.894 76.4952 139.935C76.5616 139.976 76.67 140.19 76.736 140.411C76.802 140.632 76.9128 140.995 76.9816 141.219C77.0508 141.442 77.0596 141.625 77.0012 141.625C76.9032 141.625 74 137.694 74 137.562C74 137.529 73.8032 137.244 73.5624 136.929C73.322 136.614 73.1252 136.28 73.1252 136.188C73.1252 136.096 73.0772 136.002 73.0188 135.979C72.9264 135.943 72.454 135.278 72.0624 134.633C71.9368 134.426 71.3556 133.493 70.7736 132.562C70.6016 132.288 70.3572 131.91 70.2304 131.724C70.1036 131.538 70 131.303 70 131.203C70 131.103 69.9552 131.002 69.9 130.979C69.8452 130.956 69.4432 130.291 69.0072 129.5C68.1092 127.872 68.1492 127.934 68.0536 128.03C68.014 128.069 68.1168 128.318 68.2812 128.582C68.446 128.846 68.6192 129.147 68.6664 129.25C68.7136 129.353 68.8548 129.606 68.9804 129.812C69.106 130.019 69.3928 130.525 69.618 130.938C69.8428 131.35 70.1524 131.884 70.306 132.125C70.8884 133.038 71.0632 133.325 71.288 133.737C72.21 135.425 76.878 142.007 77.1004 141.932C77.1916 141.902 77.2268 141.936 77.1808 142.011C77.1356 142.084 77.2256 142.263 77.3808 142.408L77.6636 142.671L77.572 142.304C77.522 142.102 77.4048 141.769 77.3116 141.562C76.744 140.304 75.4452 136.536 74.8124 134.312C74.6948 133.9 74.5204 133.314 74.4244 133.009C74.3284 132.704 74.25 132.353 74.25 132.228C74.25 132.102 74.1936 132 74.1252 132C74.0564 132 74 131.887 74 131.748C74 131.61 73.9112 131.146 73.8024 130.717C73.4332 129.259 73.0828 127.768 72.8848 126.812C72.4648 124.781 72.3816 124.35 72.2488 123.5C72.0388 122.158 72.0116 122.087 72.0576 123Z" fill="#E48DD4"/>
<path fill-rule="evenodd" clip-rule="evenodd" d="M80.7044 70.4384C80.5076 70.5408 80.198 70.6264 80.0168 70.6276C79.8356 70.6292 79.5468 70.7468 79.3752 70.8888C79.2032 71.0304 79.1468 71.1048 79.25 71.0532C79.3532 71.002 79.394 71.0076 79.3412 71.066C79.2884 71.124 79.1476 71.1804 79.0288 71.1908C78.5756 71.2308 78 71.3988 78 71.4912C78 71.544 77.7472 71.6916 77.438 71.8192C76.8868 72.0464 76.6492 72.3608 76.8196 72.6364C76.88 72.7344 76.8268 72.7328 76.6376 72.6316C76.4904 72.5528 76.3008 72.5316 76.216 72.5844C76.1316 72.6372 75.982 72.6928 75.884 72.7076C75.786 72.7224 75.5608 72.8512 75.384 72.9936C75.2072 73.1364 74.8236 73.376 74.5312 73.5264C74.2392 73.6768 74 73.8448 74 73.9C74 73.9548 73.8916 74 73.7592 74C73.6264 74 73.4008 74.1492 73.2576 74.3312C72.9832 74.6804 72.4644 75 72.1732 75C72.078 75 72 75.0752 72 75.1676C72 75.2596 71.8576 75.3996 71.684 75.4788C71.51 75.558 71.3356 75.7076 71.2956 75.8116C71.256 75.9152 71.1264 76 71.0076 76C70.8892 76 70.7176 76.1396 70.626 76.3104C70.5348 76.4812 70.3632 76.6516 70.2444 76.6892C70.126 76.7268 69.7332 77.0372 69.3708 77.3788C69.0088 77.7204 68.6956 78 68.6744 78C68.5952 78 68 78.6404 68 78.7256C68 78.7748 67.8768 78.8916 67.7264 78.9856C67.4136 79.1812 67.6784 79.5 68.154 79.5C68.2808 79.5 68.6056 79.6124 68.8752 79.75C69.1444 79.8876 69.508 80 69.6824 80C69.8572 80 70 80.052 70 80.1152C70 80.1788 70.2108 80.2988 70.4688 80.3824C71.0056 80.5564 71.9736 80.9656 72.25 81.1356C72.3532 81.1988 72.578 81.3084 72.75 81.3792C73.2028 81.5652 73.2392 81.5836 74.0624 82.0532C74.4752 82.2884 75.0656 82.608 75.3752 82.7628C75.6844 82.918 75.9824 83.1188 76.0376 83.21C76.0924 83.3008 76.1888 83.3752 76.2516 83.3752C76.3148 83.3752 76.6072 83.5456 76.902 83.7544C77.1964 83.9632 77.658 84.2796 77.9276 84.4572C78.4716 84.8156 78.4604 84.8068 79.25 85.5016C79.5592 85.7736 79.8764 85.9972 79.954 85.9984C80.156 86.0008 80.2704 86.5352 80.0928 86.6448C80.0112 86.6952 79.9864 86.778 80.0368 86.8288C80.0876 86.8792 80.1956 86.8544 80.2772 86.7728C80.3584 86.6916 80.5504 86.6252 80.7036 86.6252C80.8564 86.6252 81.0924 86.4844 81.2276 86.3124C81.3628 86.1408 81.592 86 81.7368 86C81.8816 86 82.0012 85.9296 82.0024 85.8436C82.0064 85.6212 83.4812 84.3752 83.7408 84.3752C83.8188 84.3752 83.9152 84.2908 83.9548 84.1876C83.9944 84.0844 84.0972 84 84.1832 84C84.2696 84 84.5516 83.8004 84.8104 83.5564C85.0692 83.3124 85.4428 83.08 85.6404 83.0408C85.8384 83.0012 86.0004 82.9056 86.0004 82.828C86.0008 82.7508 86.254 82.5836 86.5628 82.4564C86.872 82.3292 87.1252 82.1744 87.1252 82.1128C87.1252 82.0508 87.322 82 87.5624 82C87.8472 82 88 81.9408 88 81.8308C88 81.7324 88.7084 81.3584 89.6908 80.9384C90.6208 80.5408 91.4116 80.1668 91.4484 80.1076C91.4848 80.0484 91.6544 80 91.8248 80C91.9956 80 92.3568 79.8868 92.628 79.7484C92.8992 79.61 93.3328 79.4528 93.5912 79.3992C94.226 79.2672 94.2524 78.9784 93.6792 78.4376C93.424 78.1968 93.2048 78 93.1924 78C93.18 78 92.8588 77.7048 92.4788 77.3436C91.6348 76.542 91.128 76.1028 90.858 75.9376C90.7456 75.8688 90.1248 75.4188 89.4788 74.9376C88.3748 74.1152 88.0936 73.9348 87 73.3484C86.7592 73.2192 86.5756 73.0632 86.5912 73.002C86.6072 72.9404 86.4944 72.8512 86.3412 72.8032C86.188 72.7556 86.0344 72.6816 86 72.6396C85.9656 72.5972 85.6844 72.4364 85.3752 72.282C85.0656 72.1276 84.728 71.9488 84.6252 71.8844C84.306 71.6856 83.2632 71.2308 83.1744 71.2516C83.1284 71.2624 83.056 71.2176 83.014 71.1516C82.6868 70.64 81.1988 70.1804 80.7044 70.4384ZM79.9712 71.6484C79.944 71.73 79.8552 71.8192 79.7732 71.8464C79.682 71.8768 79.654 71.8196 79.7008 71.698C79.788 71.4708 80.0464 71.4236 79.9712 71.6484ZM78.0328 88.6452C78.0216 88.7936 77.9392 88.9612 77.85 89.018C77.6204 89.164 77.844 89.1504 78.122 89.0016C78.2724 88.9212 78.3296 88.7908 78.2868 88.6268C78.2 88.2952 78.0584 88.3052 78.0328 88.6452ZM61.75 89.1268C61.612 89.2176 61.6012 89.2752 61.71 89.346C61.7912 89.3984 61.88 89.694 61.9072 90.002C61.9492 90.4804 61.9596 90.4484 61.978 89.7812C61.99 89.3516 61.986 89.0008 61.9688 89.002C61.9516 89.0028 61.8532 89.0592 61.75 89.1268ZM61.4184 90.0888C61.3692 90.2804 61.336 90.536 61.3444 90.6564C61.3528 90.78 61.2724 90.8752 61.1588 90.8752C61.0484 90.8752 60.9916 90.9084 61.032 90.9488C61.0728 90.9892 61.0216 91.2564 60.9188 91.5424C60.7356 92.0512 60.6692 92.354 60.3788 93.9956C60.3 94.4404 60.1888 94.862 60.1312 94.9332C59.764 95.3868 59.7564 103.542 60.1216 105C60.1816 105.241 60.322 106.028 60.4332 106.75C60.6716 108.299 60.7144 108.487 61.8908 113.125C61.9692 113.434 62.0796 113.8 62.1364 113.938C62.1932 114.075 62.3788 114.609 62.5488 115.125C63.1524 116.953 63.786 118.689 63.892 118.806C63.9516 118.872 64 119.027 64 119.152C64 119.276 64.0552 119.476 64.1228 119.596C64.3048 119.917 65.25 121.994 65.25 122.072C65.25 122.109 65.4188 122.479 65.6252 122.895C65.8312 123.31 66 123.724 66 123.815C66 123.905 66.042 123.998 66.0936 124.021C66.21 124.072 68 127.666 68 127.847C68 127.92 68.0472 127.998 68.1048 128.021C68.1624 128.044 68.5676 128.709 69.0048 129.5C69.4424 130.291 69.8452 130.956 69.9 130.979C69.9552 131.002 70 131.103 70 131.203C70 131.303 70.1036 131.538 70.2304 131.724C70.3572 131.91 70.6016 132.288 70.7736 132.562C71.3556 133.493 71.9368 134.426 72.0624 134.633C72.454 135.278 72.9264 135.943 73.0188 135.979C73.0772 136.002 73.1252 136.096 73.1252 136.188C73.1252 136.28 73.322 136.614 73.5624 136.929C73.8032 137.244 74 137.529 74 137.562C74 137.694 76.9032 141.625 77.0012 141.625C77.0596 141.625 77.0508 141.442 76.9816 141.219C76.9128 140.995 76.802 140.632 76.736 140.411C76.67 140.19 76.5616 139.976 76.4952 139.935C76.4292 139.894 76.3752 139.756 76.3752 139.628C76.3752 139.5 76.2964 139.236 76.2 139.041C76.1036 138.847 75.9596 138.462 75.8792 138.188C75.7992 137.912 75.688 137.575 75.632 137.438C75.0712 136.054 73.446 130.302 72.9128 127.812C72.3228 125.056 72.102 123.848 72.0444 123.062C72.0144 122.65 71.94 122.2 71.8796 122.062C71.8188 121.925 71.704 121.306 71.6248 120.688C70.88 114.893 70.9068 108.38 71.692 104.375C71.8064 103.791 71.9436 103.003 71.9964 102.625C72.1516 101.514 73.36 97.3892 73.626 97.0624C73.682 96.9936 73.7672 96.7264 73.8152 96.4688C73.8636 96.2108 73.9416 96 73.9888 96C74.0696 96 74.3852 95.2448 74.3928 95.034C74.3948 94.9808 74.4596 94.8612 74.5368 94.768C74.8508 94.39 75.4356 93.1712 75.3748 93.022C75.3656 93 75.5024 92.848 75.6792 92.6844C75.8556 92.5208 76 92.3 76 92.1936C76 92.0872 76.05 92 76.1112 92C76.172 92 76.2604 91.7964 76.3072 91.5476C76.3576 91.278 76.5468 90.954 76.7756 90.7452C77.0196 90.5224 77.1316 90.3228 77.0836 90.1972C76.9772 89.9204 76.75 89.9512 76.75 90.2424C76.75 90.4076 76.6704 90.4784 76.5 90.4656C76.3624 90.4552 76.25 90.3992 76.25 90.3412C76.25 90.2828 76.1944 90.2696 76.1264 90.3116C76.0556 90.3556 76.0348 90.3052 76.0772 90.194C76.1256 90.0684 76.0812 90 75.9508 90C75.8 90 75.75 90.124 75.75 90.5C75.75 90.9168 75.7084 91 75.5 91C75.2916 91 75.25 90.9168 75.25 90.5C75.25 90.2252 75.1936 90 75.1252 90C75.0564 90 75 90.1124 75 90.25C75 90.3876 74.9484 90.5 74.8852 90.5C74.6288 90.5 74.3752 90.338 74.3752 90.174C74.3752 90.0376 74.1192 90 73.1876 90H72V91C72 91.5832 71.948 92 71.8752 92C71.8064 92 71.75 91.7752 71.75 91.5C71.75 91.0832 71.7084 91 71.5 91C71.2916 91 71.25 91.0832 71.25 91.5C71.25 91.7752 71.1936 92 71.1252 92C71.0564 92 71 91.8876 71 91.75C71 91.5416 70.9168 91.5 70.5 91.5C70.0832 91.5 70 91.4584 70 91.25C70 91.0416 69.9168 91 69.5 91C69.0832 91 69 91.0416 69 91.25C69 91.4584 68.9168 91.5 68.5 91.5H68V90.75C68 90.0332 67.986 90 67.6876 90C67.5156 90 67.3752 90.0564 67.3752 90.1252C67.3752 90.1936 67.2908 90.25 67.1876 90.25C67.0844 90.25 67 90.1936 67 90.1252C67 90.0564 66.6908 90 66.3124 90C65.5532 90 65.4352 90.1732 65.8196 90.722C66.0056 90.9876 66 91 65.6944 91C65.4716 91 65.3752 90.9328 65.3752 90.778C65.3752 90.1884 65.0416 90 64 90H63.0144L62.9664 90.5312L62.9188 91.0624L62.8968 90.5312C62.8648 89.7568 62.1344 89.6988 62.1104 90.4688C62.0908 91.0904 61.918 91.7856 61.87 91.4376C61.8508 91.3 61.8444 91.0852 61.8552 90.96C61.8664 90.8348 61.7908 90.648 61.688 90.5448C61.5504 90.4076 61.5336 90.2956 61.6256 90.124C61.7064 89.9732 61.7076 89.8636 61.6292 89.8148C61.562 89.7736 61.4672 89.8968 61.4184 90.0888ZM64 90.75C64 90.9332 63.9168 91 63.6876 91C63.1816 91 63.3768 90.658 63.9688 90.508C63.986 90.5036 64 90.6124 64 90.75ZM74.8752 92.1252C74.8752 92.1936 74.7908 92.25 74.6876 92.25C74.5844 92.25 74.5 92.1936 74.5 92.1252C74.5 92.0564 74.5844 92 74.6876 92C74.7908 92 74.8752 92.0564 74.8752 92.1252ZM61.5 92.6252C61.5 92.7624 61.4436 92.8752 61.3752 92.8752C61.3064 92.8752 61.25 92.7624 61.25 92.6252C61.25 92.4876 61.3064 92.3752 61.3752 92.3752C61.4436 92.3752 61.5 92.4876 61.5 92.6252Z" fill="#E163D8"/>
<path fill-rule="evenodd" clip-rule="evenodd" d="M34.7232 51.3736C34.7532 51.5792 34.8204 51.7212 34.8724 51.6892C34.986 51.6188 34.8828 51 34.7572 51C34.7084 51 34.6928 51.168 34.7232 51.3736ZM38.75 51.5C38.75 51.7752 38.8064 52 38.8752 52C38.9436 52 39 51.7752 39 51.5C39 51.2252 38.9436 51 38.8752 51C38.8064 51 38.75 51.2252 38.75 51.5ZM42.2188 51.3384C42.3736 51.368 42.6264 51.368 42.7812 51.3384C42.936 51.3084 42.8092 51.284 42.5 51.284C42.1908 51.284 42.064 51.3084 42.2188 51.3384ZM42 52C42 52.0688 42.2252 52.1252 42.5 52.1252C42.7752 52.1252 43 52.0688 43 52C43 51.9312 42.7752 51.8752 42.5 51.8752C42.2252 51.8752 42 51.9312 42 52ZM35.4752 52.15C35.5916 52.2668 35.6584 52.2668 35.7752 52.15C35.8916 52.0332 35.8584 52 35.6252 52C35.3916 52 35.3584 52.0332 35.4752 52.15ZM40 52.5V53L38.9688 53.03C37.068 53.0848 36.5988 53.0468 36.4764 52.828C36.3332 52.5728 35.8752 52.5608 35.8752 52.8124C35.8752 53.1532 35.6152 53.0076 35.4296 52.5624C35.3288 52.322 35.1912 52.1252 35.1232 52.1252C34.9624 52.1252 34.9636 52.4628 35.1252 52.5624C35.1936 52.6048 35.25 52.7736 35.25 52.9376C35.25 53.1012 35.3064 53.27 35.3752 53.3124C35.4436 53.3548 35.5 53.33 35.5 53.2572C35.5 53.1844 35.5624 53.1252 35.6388 53.1252C35.7292 53.1252 35.75 53.2744 35.6976 53.5528C35.6512 53.8008 35.6716 54.014 35.746 54.06C35.8172 54.104 35.8752 54.254 35.8752 54.3932C35.8752 54.6164 37.444 57.8376 37.6316 58C37.6716 58.0344 37.8916 58.4 38.1212 58.8124C38.3504 59.2252 38.6348 59.6752 38.7532 59.8124C38.8712 59.95 38.9896 60.132 39.0152 60.2172C39.0736 60.408 39.9696 61.5896 41.3912 63.3512C44.3308 66.9924 48.9028 70.8244 53.226 73.27C54.9604 74.2512 55.4968 74.5364 56.8972 75.2232C57.7688 75.6504 58.5108 76 58.546 76C58.5812 76 59.0948 76.2252 59.6876 76.5C60.28 76.7752 60.8344 77 60.92 77C61.0052 77 61.1284 77.0472 61.1936 77.1048C61.2592 77.1624 61.7908 77.386 62.3752 77.602C66.7096 79.2048 67.7908 79.4136 67.9992 78.6876C68.0788 78.4112 68.4128 78 68.5584 78C68.6432 78 69.0088 77.7204 69.3708 77.3788C69.7332 77.0372 70.1348 76.724 70.2644 76.6828C70.3936 76.642 70.5336 76.4716 70.5756 76.304C70.62 76.128 70.7436 76 70.8692 76C70.9884 76 71.1868 75.8888 71.3096 75.7532C71.4324 75.6176 71.638 75.4732 71.7664 75.4324C71.8948 75.3916 72 75.2564 72 75.1324C72 74.98 72.1252 74.8812 72.3824 74.8296C72.82 74.7424 73.1252 74.482 73.1252 74.1964C73.1252 74.0552 73.248 74 73.5624 74C73.868 74 74 73.9436 74 73.8124C74 73.7092 74.0932 73.6252 74.2072 73.6252C74.3212 73.6252 74.7008 73.4044 75.0508 73.1348C75.4012 72.8652 75.8496 72.604 76.0476 72.5544C76.2456 72.5052 76.4348 72.36 76.4684 72.2324C76.5052 72.0924 76.6416 72 76.8116 72C76.9672 72 77.1644 71.9156 77.25 71.8124C77.3356 71.7092 77.5392 71.6252 77.7028 71.6252C77.9168 71.6252 78 71.5548 78 71.3752C78 71.1852 78.0832 71.1252 78.346 71.1252C78.5364 71.1252 78.8988 70.9844 79.152 70.8124C79.4048 70.6408 79.6992 70.5 79.806 70.5C79.9148 70.5 80 70.3932 80 70.2572C80 70.0616 80.1032 70.006 80.5312 69.972L81.0624 69.93L80.7112 69.7776C80.5184 69.694 80.0524 69.4848 79.6764 69.3128C79.3004 69.1408 78.9604 69 78.9216 69C78.8824 69 78.6732 68.9212 78.4564 68.8252C78.2396 68.7288 77.2772 68.3284 76.3176 67.9348C75.358 67.5416 74.4864 67.1748 74.3804 67.1204C74.2744 67.0656 73.9908 66.9364 73.75 66.8332C69.838 65.1532 65.8132 63.1916 62.5 61.35C62.1908 61.178 61.628 60.8692 61.25 60.6644C60.872 60.4592 59.7272 59.7756 58.706 59.1456C57.6852 58.5156 56.8076 58 56.7556 58C56.704 58 56.5096 57.8592 56.3244 57.6876C56.1388 57.5156 55.958 57.3752 55.9228 57.3752C55.8872 57.3752 55.674 57.2344 55.4488 57.0624C55.2232 56.8908 54.9996 56.75 54.9516 56.75C54.9036 56.75 54.7964 56.6928 54.7136 56.6224C54.006 56.0248 52.6396 55.1248 52.438 55.1232C52.2304 55.1216 52.2196 55.1004 52.3752 55C52.508 54.914 52.5156 54.8784 52.4012 54.8768C52.3124 54.876 52.1152 54.7556 51.9636 54.61C51.8116 54.464 51.4768 54.2484 51.2192 54.1304C50.9616 54.012 50.7884 53.8784 50.834 53.8328C50.8796 53.7872 50.8312 53.75 50.7264 53.75C50.622 53.75 50.4016 53.5896 50.2368 53.3936C49.8232 52.9008 49.62 52.8684 49.2908 53.2416C49.0588 53.5048 49.0072 53.5232 49.004 53.3436C49.0004 53.1496 48.8536 53.1252 47.7048 53.1252C45.4648 53.1252 45 52.9596 45 52.1624C45 51.9088 44.776 51.9716 44.6876 52.25C44.6368 52.4096 44.4984 52.5 44.304 52.5C44.0492 52.5 44 52.5608 44 52.8772C44 53.2188 43.97 53.2472 43.6836 53.1752C43.3028 53.0796 43.3228 53.0808 42.0312 53.1052C41.1484 53.122 41 53.156 41 53.3392C41 53.5412 40.9876 53.5412 40.7872 53.3408C40.6364 53.19 40.5848 52.9636 40.6092 52.564C40.642 52.0324 40.6256 52 40.322 52C40.0296 52 40 52.046 40 52.5ZM45.75 52.18C45.75 52.2792 45.8064 52.3952 45.8752 52.4376C45.9436 52.48 46 52.624 46 52.7572C46 52.9572 46.0884 53 46.5 53H47V52.5V52H46.3752C45.914 52 45.75 52.0472 45.75 52.18ZM48.5888 52.5C48.6336 52.6708 48.5928 52.75 48.4596 52.75C48.3524 52.75 48.23 52.8064 48.1876 52.8752C48.1412 52.95 48.3008 53 48.5864 53C49.002 53 49.0648 52.9616 49.08 52.6968C49.092 52.4852 49.0448 52.4136 48.9236 52.46C48.828 52.4968 48.75 52.4644 48.75 52.3884C48.75 52.3124 48.6992 52.25 48.6368 52.25C48.5744 52.25 48.5528 52.3624 48.5888 52.5ZM42 52.6876C42 52.8228 42.1388 52.8752 42.5 52.8752C42.8612 52.8752 43 52.8228 43 52.6876C43 52.552 42.8612 52.5 42.5 52.5C42.1388 52.5 42 52.552 42 52.6876ZM93.662 79.3812C93.0948 79.4932 92.6684 79.6888 92.3956 79.9616C92.3012 80.056 92.118 80.1 91.9888 80.0588C91.8492 80.0148 91.3856 80.16 90.8456 80.4172C90.346 80.6552 89.5016 81.0344 88.9688 81.26C88.436 81.4856 88 81.7444 88 81.8352C88 81.9404 87.8416 82 87.5624 82C87.322 82 87.1252 82.0508 87.1252 82.1128C87.1252 82.1744 86.8784 82.3272 86.5768 82.452C86.2372 82.5924 86.052 82.74 86.09 82.8392C86.1304 82.9444 86.0408 83 85.8296 83C85.5948 83 85.5272 83.0508 85.5796 83.1876C85.6192 83.2908 85.594 83.3752 85.5236 83.3752C85.4536 83.3752 85.3736 83.3084 85.3468 83.2272C85.3188 83.1444 85.0408 83.3324 84.7128 83.656C84.3916 83.9728 84.0012 84.272 83.8456 84.3208C83.5652 84.4084 83.1772 84.6852 82.422 85.3372C81.9456 85.748 82.0976 86 82.822 86H83.2864L82.9556 85.6936C82.596 85.36 82.5404 85.174 82.7764 85.0952C83.1088 84.9844 83.5004 85.1728 83.774 85.5748C84.0636 86 85.5 86.25 85.5 85.8752C85.5 85.7264 85.3776 85.7088 84.5936 85.7452C84.0468 85.7708 84 85.75 83.9984 85.4804C83.9972 85.3192 83.9772 85.0752 83.9536 84.9376C83.93 84.8 83.9352 84.758 83.9648 84.8436C84.0504 85.0928 84.284 85.028 84.784 84.616C85.2628 84.2212 85.306 84.2408 85.2836 84.8436C85.2804 84.9296 85.356 85 85.4512 85C85.5468 85 85.6252 85.0812 85.6252 85.18C85.6252 85.4136 85.8792 85.5704 85.9836 85.4012C86.0916 85.2268 88.5092 85.106 89.3752 85.232L90.0624 85.332L88.9064 85.432C87.1852 85.5812 87.3808 85.8276 89.2812 85.9036L90.25 85.9424V84.9712V84H90.6252C90.986 84 91 84.0208 91 84.5624C91 85.0948 91.0184 85.1244 91.3436 85.1164C91.6352 85.1088 91.6504 85.0928 91.4432 85.012C91.2384 84.9316 91.2684 84.9028 91.63 84.8304C91.8896 84.7784 92.0776 84.7948 92.1032 84.872C92.216 85.2104 92.5932 84.9744 92.7476 84.4688C92.8372 84.1764 92.9352 84.008 92.9656 84.0936C92.9972 84.1828 93.2316 84.25 93.5104 84.25C93.9712 84.25 94 84.272 94 84.6252C94 84.9792 93.9724 85 93.5 85C93.2252 85 93 85.054 93 85.1204C93 85.1932 93.7876 85.2316 95 85.218C96.1 85.206 97 85.1576 97 85.1104C97 85.0636 97.2392 85.0056 97.5316 84.9812L98.0632 84.9376L98.0332 85.4376L98.0032 85.9376L98.1728 85.5724L98.3424 85.2072L98.7336 85.7472C98.9488 86.0444 99.1252 86.3652 99.1252 86.46C99.1252 86.5544 99.2872 86.954 99.486 87.3472C99.6844 87.7408 99.92 88.3156 100.01 88.6252C100.1 88.9344 100.247 89.3044 100.337 89.4476C100.427 89.5904 100.465 89.7432 100.421 89.7872C100.377 89.8312 100.426 89.9964 100.529 90.154C100.762 90.5088 101.004 91.522 101.612 94.6876C102.231 97.9088 102.068 103.723 101.255 107.438C101.194 107.712 101.078 108.275 100.994 108.688C100.583 110.733 99.9572 113.024 99.2528 115.062C98.968 115.888 98.6236 116.899 98.4884 117.31C98.3528 117.722 98.1876 118.112 98.1208 118.179C98.0544 118.246 98 118.418 98 118.562C98 118.707 97.952 118.878 97.8936 118.944C97.8352 119.009 97.524 119.698 97.2024 120.474C96.1396 123.038 94.4512 126.543 93.3656 128.438C93.0504 128.988 92.6516 129.691 92.4788 130C92.1896 130.518 91.1852 132.233 90.8356 132.806C90.7544 132.939 90.234 133.755 89.68 134.618C89.1256 135.481 88.5652 136.37 88.434 136.594C88.3032 136.817 88.152 137 88.098 137C88.044 137 88 137.058 88 137.13C88 137.278 85.2316 141.18 84.8552 141.562C84.61 141.812 84.6096 141.812 84.6956 141.438C84.7432 141.231 84.8312 141.009 84.8912 140.944C84.9512 140.878 85 140.707 85 140.562C85 140.418 85.0484 140.246 85.108 140.181C85.1672 140.116 85.3968 139.528 85.6184 138.875C85.8396 138.222 86.0672 137.575 86.124 137.438C86.2144 137.218 86.7648 135.457 87.3344 133.562C87.4376 133.219 87.5788 132.75 87.6476 132.521C87.8692 131.788 88.6336 128.709 88.7548 128.062C88.8192 127.719 88.9584 127.072 89.0636 126.625C89.1692 126.178 89.3084 125.503 89.3732 125.125C89.4384 124.747 89.582 123.931 89.6924 123.312C89.894 122.183 89.976 121.557 90.2404 119.125C90.3188 118.403 90.4428 117.278 90.5164 116.625C90.7868 114.216 90.4996 105.955 90.1148 105.084C90.0264 104.883 90.0116 104.976 90.0592 105.438C90.6944 111.619 90.6224 115.394 89.7436 121.938C89.67 122.488 89.5592 123.191 89.498 123.5C89.4364 123.809 89.2968 124.569 89.1876 125.188C89.0784 125.806 88.9388 126.509 88.8772 126.75C88.816 126.991 88.6756 127.609 88.5656 128.125C88.2428 129.637 87.7696 131.434 86.92 134.375C86.39 136.21 84.864 140.637 84.4428 141.562C84.186 142.127 84.12 142.522 84.2912 142.469C84.7372 142.332 89.2504 135.827 91.1892 132.528C91.2588 132.41 91.4836 132.032 91.6892 131.69C91.8944 131.348 92.1308 130.954 92.214 130.815C92.2972 130.676 92.406 130.478 92.4556 130.375C92.5056 130.272 92.854 129.653 93.23 129C93.866 127.895 95.8512 123.991 96.2812 123C96.3856 122.759 96.5832 122.309 96.7208 122C97.7556 119.67 97.6676 119.878 98.232 118.438C101.698 109.591 103.004 100.272 101.69 93.75C101.6 93.3032 101.458 92.6 101.375 92.1876C100.554 88.1344 98.002 83.1612 95.0972 79.9516C94.8412 79.6688 94.63 79.3952 94.6284 79.3436C94.6244 79.2316 94.3688 79.2416 93.662 79.3812ZM87.4964 82.9952C87.736 83.1468 87.6216 83.2488 87.0732 83.3724C86.6232 83.474 86.6004 83.4204 86.932 83.036C87.09 82.8524 87.252 82.8408 87.4964 82.9952ZM97 83.3752C97 83.4436 96.9156 83.5 96.8124 83.5C96.7092 83.5 96.6252 83.4436 96.6252 83.3752C96.6252 83.3064 96.7092 83.25 96.8124 83.25C96.9156 83.25 97 83.3064 97 83.3752ZM97.3732 83.7812C97.374 83.9016 97.2872 84 97.18 84C97.0552 84 97.0204 83.944 97.0832 83.8436C97.1372 83.758 97.166 83.5752 97.1476 83.4376C97.1196 83.2312 97.1364 83.22 97.2424 83.3752C97.3132 83.478 97.372 83.6608 97.3732 83.7812ZM86.3464 83.6876C86.3632 83.8924 86.308 84 86.186 84C85.9612 84 85.936 83.5468 86.1564 83.4576C86.242 83.4232 86.3144 83.3904 86.3164 83.3848C86.3188 83.3796 86.332 83.5156 86.3464 83.6876ZM93.4548 83.5624C93.4944 83.6656 93.6332 83.75 93.7632 83.75C93.8936 83.75 94 83.8064 94 83.8752C94 84.0544 93.4764 84.0216 93.2188 83.826C93.0984 83.7348 93 83.596 93 83.5176C93 83.3072 93.3708 83.344 93.4548 83.5624ZM96 83.8124C96 83.948 95.8612 84 95.5 84C95.1388 84 95 83.948 95 83.8124C95 83.6772 95.1388 83.6252 95.5 83.6252C95.8612 83.6252 96 83.6772 96 83.8124ZM92 84.3124C92 84.428 91.8828 84.5 91.6948 84.5C91.3248 84.5 91.1604 84.2916 91.4672 84.2116C91.8828 84.1032 92 84.1252 92 84.3124ZM90 84.3752C90 84.4436 89.7752 84.5 89.5 84.5C89.2252 84.5 89 84.4436 89 84.3752C89 84.3064 89.2252 84.25 89.5 84.25C89.7752 84.25 90 84.3064 90 84.3752ZM97.9376 84.4984C97.9376 84.7208 97.5252 84.8252 97.3476 84.6476C97.2784 84.5784 97.2616 84.4576 97.31 84.3788C97.4344 84.1776 97.9376 84.2736 97.9376 84.4984ZM95 84.6876C95 84.9376 94.9376 85 94.6876 85C94.3216 85 94.2992 84.916 94.582 84.6036C94.8656 84.29 95 84.3172 95 84.6876ZM87 84.8124C87 84.948 86.8612 85 86.5 85C86.1388 85 86 84.948 86 84.8124C86 84.6772 86.1388 84.6252 86.5 84.6252C86.8612 84.6252 87 84.6772 87 84.8124ZM89 84.8124C89 84.948 88.8612 85 88.5 85C88.1388 85 88 84.948 88 84.8124C88 84.6772 88.1388 84.6252 88.5 84.6252C88.8612 84.6252 89 84.6772 89 84.8124ZM97 84.8124C97 84.948 96.8612 85 96.5 85C96.1388 85 96 84.948 96 84.8124C96 84.6772 96.1388 84.6252 96.5 84.6252C96.8612 84.6252 97 84.6772 97 84.8124ZM96.2188 85.7132C96.3736 85.7432 96.6264 85.7432 96.7812 85.7132C96.936 85.6836 96.8092 85.6592 96.5 85.6592C96.1908 85.6592 96.064 85.6836 96.2188 85.7132ZM81.3292 86.2592C80.868 86.622 80.874 86.636 82.0996 87.9808C86.0688 92.3356 88.5732 97.3932 89.63 103.188C89.8776 104.544 89.9728 104.771 89.9872 104.039C89.9944 103.682 89.9436 103.355 89.8752 103.312C89.8064 103.27 89.7476 103.028 89.7444 102.774C89.7416 102.52 89.658 102.088 89.5588 101.812C89.46 101.538 89.378 101.229 89.3768 101.126C89.3748 100.911 88.5472 98.2432 88.3104 97.6876C88.2224 97.4812 88.0472 97.0172 87.9208 96.6564C87.7948 96.2952 87.6484 96 87.5956 96C87.5432 96 87.5 95.9172 87.5 95.816C87.5 95.59 86.7936 94.1288 86.336 93.4088C86.1512 93.118 86 92.8244 86 92.756C86 92.6384 85.2716 91.5064 85.1112 91.3752C85.0692 91.3408 84.9464 91.1436 84.838 90.9376C84.73 90.7312 84.5108 90.422 84.3508 90.25C84.1908 90.078 83.958 89.7784 83.8336 89.584C83.5756 89.1824 83.2896 88.8428 82.5312 88.0376C82.2392 87.7276 82 87.386 82 87.2784C82 87.1712 81.9624 87.1208 81.9164 87.1668C81.806 87.2776 81.3752 86.8824 81.3752 86.6704C81.3752 86.5792 81.5156 86.4696 81.6876 86.4264C81.8592 86.3832 82 86.2696 82 86.174C82 85.9232 81.7096 85.96 81.3292 86.2592Z" fill="#AAACE1"/>
<path fill-rule="evenodd" clip-rule="evenodd" d="M86.932 83.036C86.6004 83.4204 86.6232 83.474 87.0732 83.3724C87.6216 83.2488 87.736 83.1468 87.4964 82.9952C87.252 82.8408 87.09 82.8524 86.932 83.036ZM96.6252 83.3752C96.6252 83.4436 96.7092 83.5 96.8124 83.5C96.9156 83.5 97 83.4436 97 83.3752C97 83.3064 96.9156 83.25 96.8124 83.25C96.7092 83.25 96.6252 83.3064 96.6252 83.3752ZM97.1476 83.4376C97.166 83.5752 97.1372 83.758 97.0832 83.8436C97.0204 83.944 97.0552 84 97.18 84C97.4012 84 97.4352 83.656 97.2424 83.3752C97.1364 83.22 97.1196 83.2312 97.1476 83.4376ZM86.1564 83.4576C85.936 83.5468 85.9612 84 86.186 84C86.308 84 86.3632 83.8924 86.3464 83.6876C86.332 83.5156 86.3188 83.3796 86.3164 83.3848C86.3144 83.3904 86.242 83.4232 86.1564 83.4576ZM93 83.5176C93 83.596 93.0984 83.7348 93.2188 83.826C93.4764 84.0216 94 84.0544 94 83.8752C94 83.8064 93.8936 83.75 93.7632 83.75C93.6332 83.75 93.4944 83.6656 93.4548 83.5624C93.3708 83.344 93 83.3072 93 83.5176ZM95 83.8124C95 83.948 95.1388 84 95.5 84C95.8612 84 96 83.948 96 83.8124C96 83.6772 95.8612 83.6252 95.5 83.6252C95.1388 83.6252 95 83.6772 95 83.8124ZM90.25 84.9712V85.9424L89.2812 85.9036C87.3808 85.8276 87.1852 85.5812 88.9064 85.432L90.0624 85.332L89.3752 85.232C88.5092 85.106 86.0916 85.2268 85.9836 85.4012C85.8792 85.5704 85.6252 85.4136 85.6252 85.18C85.6252 85.0812 85.5468 85 85.4512 85C85.356 85 85.2804 84.9296 85.2836 84.8436C85.306 84.2408 85.2628 84.2212 84.784 84.616C84.284 85.028 84.0504 85.0928 83.9648 84.8436C83.9352 84.758 83.93 84.8 83.9536 84.9376C83.9772 85.0752 83.9972 85.3192 83.9984 85.4804C84 85.75 84.0468 85.7708 84.5936 85.7452C85.3776 85.7088 85.5 85.7264 85.5 85.8752C85.5 86.25 84.0636 86 83.774 85.5748C83.5004 85.1728 83.1088 84.9844 82.7764 85.0952C82.5404 85.174 82.596 85.36 82.9556 85.6936L83.2864 86H82.7684C82.4832 86 82.25 85.9436 82.25 85.8752C82.25 85.8064 82.1936 85.75 82.1252 85.75C82.0564 85.75 82 85.8844 82 86.0488C82 86.2636 81.912 86.37 81.6876 86.4264C81.5156 86.4696 81.3752 86.5792 81.3752 86.6704C81.3752 86.8824 81.806 87.2776 81.9164 87.1668C81.9624 87.1208 82 87.1712 82 87.2784C82 87.386 82.2392 87.7276 82.5312 88.0376C83.2896 88.8428 83.5756 89.1824 83.8336 89.584C83.958 89.7784 84.1908 90.078 84.3508 90.25C84.5108 90.422 84.73 90.7312 84.838 90.9376C84.9464 91.1436 85.0692 91.3408 85.1112 91.3752C85.2716 91.5064 86 92.6384 86 92.756C86 92.8244 86.1512 93.118 86.336 93.4088C86.7936 94.1288 87.5 95.59 87.5 95.816C87.5 95.9172 87.5432 96 87.5956 96C87.6484 96 87.7948 96.2952 87.9208 96.6564C88.0472 97.0172 88.2224 97.4812 88.3104 97.6876C88.5472 98.2432 89.3748 100.911 89.3768 101.126C89.378 101.229 89.46 101.538 89.5588 101.812C89.658 102.088 89.7416 102.512 89.7444 102.756C89.7476 103 89.8016 103.254 89.8644 103.319C89.9276 103.384 90.0044 103.775 90.036 104.188C90.0672 104.6 90.1528 105.331 90.2256 105.812C90.2988 106.294 90.4188 107.2 90.492 107.827C90.6592 109.259 90.666 115.464 90.5016 116.806C90.434 117.36 90.3152 118.403 90.238 119.125C89.9852 121.486 89.896 122.172 89.6924 123.312C89.582 123.931 89.4384 124.747 89.3732 125.125C89.3084 125.503 89.1692 126.178 89.0636 126.625C88.9584 127.072 88.8192 127.719 88.7548 128.062C88.6336 128.709 87.8692 131.788 87.6476 132.521C87.5788 132.75 87.4376 133.219 87.3344 133.562C86.7648 135.457 86.2144 137.218 86.124 137.438C86.0672 137.575 85.8396 138.222 85.6184 138.875C85.3968 139.528 85.1672 140.116 85.108 140.181C85.0484 140.246 85 140.418 85 140.562C85 140.707 84.9512 140.878 84.8912 140.944C84.8312 141.009 84.7432 141.231 84.6956 141.438C84.6096 141.812 84.61 141.812 84.8552 141.562C85.2316 141.18 88 137.278 88 137.13C88 137.058 88.044 137 88.098 137C88.152 137 88.3032 136.817 88.434 136.594C88.5652 136.37 89.1256 135.481 89.68 134.618C90.234 133.755 90.7544 132.939 90.8356 132.806C91.1852 132.233 92.1896 130.518 92.4788 130C92.6516 129.691 93.0504 128.988 93.3656 128.438C94.4512 126.543 96.1396 123.038 97.2024 120.474C97.524 119.698 97.8352 119.009 97.8936 118.944C97.952 118.878 98 118.707 98 118.562C98 118.418 98.0544 118.246 98.1208 118.179C98.1876 118.112 98.3528 117.722 98.4884 117.31C98.6236 116.899 98.968 115.888 99.2528 115.062C99.9572 113.024 100.583 110.733 100.994 108.688C101.078 108.275 101.194 107.712 101.255 107.438C102.068 103.723 102.231 97.9088 101.612 94.6876C101.004 91.522 100.762 90.5088 100.529 90.154C100.426 89.9964 100.377 89.8312 100.421 89.7872C100.465 89.7432 100.427 89.5904 100.337 89.4476C100.247 89.3044 100.1 88.9344 100.01 88.6252C99.92 88.3156 99.6844 87.7408 99.486 87.3472C99.2872 86.954 99.1252 86.5544 99.1252 86.46C99.1252 86.3652 98.9488 86.0444 98.7336 85.7472L98.3424 85.2072L98.1728 85.5724L98.0032 85.9376L98.0332 85.4376L98.0632 84.9376L97.5316 84.9812C97.2392 85.0056 97 85.0636 97 85.1104C97 85.1576 96.1 85.206 95 85.218C93.7876 85.2316 93 85.1932 93 85.1204C93 85.054 93.2252 85 93.5 85C93.9724 85 94 84.9792 94 84.6252C94 84.272 93.9712 84.25 93.5104 84.25C93.2316 84.25 92.9972 84.1828 92.9656 84.0936C92.9352 84.008 92.8372 84.1764 92.7476 84.4688C92.5932 84.9744 92.216 85.2104 92.1032 84.872C92.0776 84.7948 91.8896 84.7784 91.63 84.8304C91.2684 84.9028 91.2384 84.9316 91.4432 85.012C91.6504 85.0928 91.6352 85.1088 91.3436 85.1164C91.0184 85.1244 91 85.0948 91 84.5624C91 84.0208 90.986 84 90.6252 84H90.25V84.9712ZM91.4672 84.2116C91.1604 84.2916 91.3248 84.5 91.6948 84.5C91.8828 84.5 92 84.428 92 84.3124C92 84.1252 91.8828 84.1032 91.4672 84.2116ZM89 84.3752C89 84.4436 89.2252 84.5 89.5 84.5C89.7752 84.5 90 84.4436 90 84.3752C90 84.3064 89.7752 84.25 89.5 84.25C89.2252 84.25 89 84.3064 89 84.3752ZM97.31 84.3788C97.2616 84.4576 97.2784 84.5784 97.3476 84.6476C97.5252 84.8252 97.9376 84.7208 97.9376 84.4984C97.9376 84.2736 97.4344 84.1776 97.31 84.3788ZM94.582 84.6036C94.2992 84.916 94.3216 85 94.6876 85C94.9376 85 95 84.9376 95 84.6876C95 84.3172 94.8656 84.29 94.582 84.6036ZM86 84.8124C86 84.948 86.1388 85 86.5 85C86.8612 85 87 84.948 87 84.8124C87 84.6772 86.8612 84.6252 86.5 84.6252C86.1388 84.6252 86 84.6772 86 84.8124ZM88 84.8124C88 84.948 88.1388 85 88.5 85C88.8612 85 89 84.948 89 84.8124C89 84.6772 88.8612 84.6252 88.5 84.6252C88.1388 84.6252 88 84.6772 88 84.8124ZM96 84.8124C96 84.948 96.1388 85 96.5 85C96.8612 85 97 84.948 97 84.8124C97 84.6772 96.8612 84.6252 96.5 84.6252C96.1388 84.6252 96 84.6772 96 84.8124ZM96.7812 85.7132C96.6264 85.7432 96.3736 85.7432 96.2188 85.7132C96.064 85.6836 96.1908 85.6592 96.5 85.6592C96.8092 85.6592 96.936 85.6836 96.7812 85.7132Z" fill="#898EE2"/>
<path fill-rule="evenodd" clip-rule="evenodd" d="M128.375 30.5C128.375 30.5688 128.174 30.6252 127.928 30.6252C127.402 30.6252 127.125 30.8588 127.125 31.3036C127.125 31.4804 127.069 31.6252 127 31.6252C126.931 31.6252 126.875 31.7376 126.875 31.8752C126.875 32.0124 126.819 32.1252 126.75 32.1252C126.681 32.1252 126.625 32.2376 126.625 32.3752C126.625 32.5124 126.569 32.6252 126.5 32.6252C126.431 32.6252 126.375 32.85 126.375 33.1252C126.375 33.4 126.319 33.6252 126.25 33.6252C126.181 33.6252 126.125 33.7376 126.125 33.8752C126.125 34.0124 126.069 34.1252 126 34.1252C125.931 34.1252 125.875 34.2936 125.875 34.5C125.875 34.7064 125.819 34.8752 125.75 34.8752C125.681 34.8752 125.625 34.9876 125.625 35.1252C125.625 35.2624 125.569 35.3752 125.5 35.3752C125.431 35.3752 125.375 35.4876 125.375 35.6252C125.375 35.7624 125.319 35.8752 125.25 35.8752C125.181 35.8752 125.125 35.9876 125.125 36.1252C125.125 36.2624 125.069 36.3752 125 36.3752C124.931 36.3752 124.875 36.4876 124.875 36.6252C124.875 36.7624 124.819 36.8752 124.75 36.8752C124.681 36.8752 124.625 36.9876 124.625 37.1252C124.625 37.2624 124.569 37.3752 124.5 37.3752C124.431 37.3752 124.375 37.4876 124.375 37.6252C124.375 37.7624 124.319 37.8752 124.25 37.8752C124.181 37.8752 124.125 37.9876 124.125 38.1252C124.125 38.2624 124.069 38.3752 124 38.3752C123.931 38.3752 123.875 38.4752 123.875 38.5976C123.875 38.7196 123.762 38.9008 123.625 39C123.488 39.0992 123.375 39.2804 123.375 39.4024C123.375 39.5248 123.319 39.6252 123.25 39.6252C123.181 39.6252 123.125 39.7252 123.125 39.8476C123.125 39.9696 123.012 40.1508 122.875 40.25C122.738 40.3492 122.625 40.518 122.625 40.6252C122.625 40.732 122.512 40.9008 122.375 41C122.238 41.0992 122.125 41.268 122.125 41.3752C122.125 41.482 122.012 41.6508 121.875 41.75C121.738 41.8492 121.625 42.0076 121.625 42.1024C121.625 42.1972 121.456 42.4324 121.25 42.6248C121.044 42.8176 120.875 43.0416 120.875 43.1224C120.875 43.2032 120.65 43.4856 120.375 43.75C120.1 44.0144 119.875 44.2956 119.875 44.3752C119.875 44.4544 119.65 44.7356 119.375 45C119.1 45.2644 118.875 45.5416 118.875 45.616C118.875 45.7912 114.044 50.6252 113.869 50.6252C113.796 50.6252 113.405 50.9624 113 51.3752C112.595 51.7876 112.2 52.1252 112.122 52.1252C112.044 52.1252 111.764 52.35 111.5 52.6252C111.236 52.9 110.954 53.1252 110.875 53.1252C110.796 53.1252 110.514 53.35 110.25 53.6252C109.986 53.9 109.703 54.1252 109.622 54.1252C109.542 54.1248 109.318 54.2936 109.125 54.5C108.932 54.7064 108.697 54.8752 108.602 54.8752C108.508 54.8752 108.349 54.9876 108.25 55.1252C108.151 55.2624 107.982 55.3752 107.875 55.3752C107.768 55.3752 107.599 55.4876 107.5 55.6252C107.401 55.7624 107.242 55.8752 107.148 55.8752C107.053 55.8752 106.818 56.0436 106.625 56.25C106.432 56.4564 106.197 56.6248 106.102 56.6252C106.008 56.6252 105.849 56.7376 105.75 56.8752C105.651 57.0124 105.482 57.1252 105.375 57.1252C105.268 57.1252 105.099 57.2376 105 57.3752C104.901 57.5124 104.72 57.6252 104.598 57.6252C104.475 57.6252 104.375 57.6812 104.375 57.75C104.375 57.8188 104.275 57.8752 104.152 57.8752C104.03 57.8752 103.849 57.9876 103.75 58.1252C103.651 58.2624 103.482 58.3752 103.375 58.3752C103.268 58.3752 103.099 58.4876 103 58.6252C102.901 58.7624 102.72 58.8752 102.598 58.8752C102.475 58.8752 102.375 58.9312 102.375 59C102.375 59.0688 102.275 59.1252 102.152 59.1252C102.03 59.1252 101.849 59.2376 101.75 59.3752C101.651 59.5124 101.47 59.6252 101.348 59.6252C101.225 59.6252 101.125 59.6812 101.125 59.75C101.125 59.8188 101.025 59.8752 100.902 59.8752C100.78 59.8752 100.599 59.9876 100.5 60.1252C100.401 60.2624 100.22 60.3752 100.098 60.3752C99.9752 60.3752 99.8752 60.4312 99.8752 60.5C99.8752 60.5688 99.7624 60.6252 99.6252 60.6252C99.4876 60.6252 99.3752 60.6812 99.3752 60.75C99.3752 60.8188 99.2748 60.8752 99.1524 60.8752C99.0304 60.8752 98.8492 60.9876 98.75 61.1252C98.6508 61.2624 98.4696 61.3752 98.3476 61.3752C98.2252 61.3752 98.1252 61.4312 98.1252 61.5C98.1252 61.5688 98.0124 61.6252 97.8752 61.6252C97.7376 61.6252 97.6252 61.6812 97.6252 61.75C97.6252 61.8188 97.5124 61.8752 97.3752 61.8752C97.2376 61.8752 97.1252 61.9312 97.1252 62C97.1252 62.0688 97.0124 62.1252 96.8752 62.1252C96.7376 62.1252 96.6252 62.1812 96.6252 62.25C96.6252 62.3188 96.5124 62.3752 96.3752 62.3752C96.2376 62.3752 96.1252 62.4312 96.1252 62.5C96.1252 62.5688 96.0124 62.6252 95.8752 62.6252C95.7376 62.6252 95.6252 62.6812 95.6252 62.75C95.6252 62.8188 95.5124 62.8752 95.3752 62.8752C95.2376 62.8752 95.1252 62.9312 95.1252 63C95.1252 63.0688 95.0124 63.1252 94.8752 63.1252C94.7376 63.1252 94.6252 63.1812 94.6252 63.25C94.6252 63.3188 94.5248 63.3752 94.4024 63.3752C94.2804 63.3752 94.0992 63.4876 94 63.6252C93.894 63.772 93.6764 63.8752 93.4724 63.8752C93.2812 63.8752 93.1252 63.9312 93.1252 64C93.1252 64.0688 93.0124 64.1252 92.8752 64.1252C92.7376 64.1252 92.6252 64.1812 92.6252 64.25C92.6252 64.3188 92.5124 64.3752 92.3752 64.3752C92.2376 64.3752 92.1252 64.4312 92.1252 64.5C92.1252 64.5688 92.0124 64.6252 91.8752 64.6252C91.7376 64.6252 91.6252 64.6812 91.6252 64.75C91.6252 64.8188 91.5124 64.8752 91.3752 64.8752C91.2376 64.8752 91.1252 64.9312 91.1252 65C91.1252 65.0688 91.0124 65.1252 90.8752 65.1252C90.7376 65.1252 90.6252 65.1812 90.6252 65.25C90.6252 65.3188 90.4688 65.3752 90.2776 65.3752C90.0736 65.3752 89.856 65.478 89.75 65.6252C89.644 65.772 89.4264 65.8752 89.2224 65.8752C89.0312 65.8752 88.8752 65.9312 88.8752 66C88.8752 66.0688 88.7624 66.1252 88.6252 66.1252C88.4876 66.1252 88.3752 66.1812 88.3752 66.25C88.3752 66.3188 88.2064 66.3752 88 66.3752C87.7936 66.3752 87.6252 66.4312 87.6252 66.5C87.6252 66.5688 87.5124 66.6252 87.3752 66.6252C87.2376 66.6252 87.1252 66.6812 87.1252 66.75C87.1252 66.8188 87.0124 66.8752 86.8752 66.8752C86.7376 66.8752 86.6252 66.9312 86.6252 67C86.6252 67.0688 86.4564 67.1252 86.25 67.1252C86.0436 67.1252 85.8752 67.1812 85.8752 67.25C85.8752 67.3188 85.7624 67.3752 85.6252 67.3752C85.4876 67.3752 85.3752 67.4312 85.3752 67.5C85.3752 67.5688 85.2624 67.6252 85.1252 67.6252C84.9876 67.6252 84.8752 67.6812 84.8752 67.75C84.8752 67.8188 84.7064 67.8752 84.5 67.8752C84.2936 67.8752 84.1252 67.9312 84.1252 68C84.1252 68.0688 84.0124 68.1252 83.8752 68.1252C83.7376 68.1252 83.6252 68.1812 83.6252 68.25C83.6252 68.3188 83.4564 68.3752 83.25 68.3752C83.0436 68.3752 82.8752 68.4312 82.8752 68.5C82.8752 68.5688 82.7624 68.6252 82.6252 68.6252C82.4876 68.6252 82.3752 68.6812 82.3752 68.75C82.3752 68.8188 82.2064 68.8752 82 68.8752C81.7936 68.8752 81.6252 68.9312 81.6252 69C81.6252 69.0688 81.5124 69.1252 81.3752 69.1252C81.2376 69.1252 81.1252 69.1812 81.1252 69.25C81.1252 69.3188 80.9564 69.3752 80.75 69.3752C80.5436 69.3752 80.3752 69.3188 80.3752 69.25C80.3752 69.1812 80.2624 69.1252 80.1252 69.1252C79.9876 69.1252 79.8752 69.0688 79.8752 69C79.8752 68.9312 79.7624 68.8752 79.6252 68.8752C79.4876 68.8752 79.3752 68.8188 79.3752 68.75C79.3752 68.6812 79.2064 68.6252 79 68.6252C78.7936 68.6252 78.6252 68.5688 78.6252 68.5C78.6252 68.4312 78.5124 68.3752 78.3752 68.3752C78.2376 68.3752 78.1252 68.3188 78.1252 68.25C78.1252 68.1812 77.9564 68.1252 77.75 68.1252C77.5436 68.1252 77.3752 68.0688 77.3752 68C77.3752 67.9312 77.2624 67.8752 77.1252 67.8752C76.9876 67.8752 76.8752 67.8188 76.8752 67.75C76.8752 67.6812 76.7624 67.6252 76.6252 67.6252C76.4876 67.6252 76.3752 67.5688 76.3752 67.5C76.3752 67.4312 76.2064 67.3752 76 67.3752C75.7936 67.3752 75.6252 67.3188 75.6252 67.25C75.6252 67.1812 75.5124 67.1252 75.3752 67.1252C75.2376 67.1252 75.1252 67.0688 75.1252 67C75.1252 66.9312 74.9688 66.8752 74.7776 66.8752C74.5736 66.8752 74.356 66.772 74.25 66.6252C74.144 66.478 73.9264 66.3752 73.7224 66.3752C73.5312 66.3752 73.3752 66.3188 73.3752 66.25C73.3752 66.1812 73.2624 66.1252 73.1252 66.1252C72.9876 66.1252 72.8752 66.0688 72.8752 66C72.8752 65.9312 72.7064 65.8752 72.5 65.8752C72.2936 65.8752 72.1252 65.8188 72.1252 65.75C72.1252 65.6812 72.0124 65.6252 71.8752 65.6252C71.7376 65.6252 71.6252 65.5688 71.6252 65.5C71.6252 65.4312 71.5124 65.3752 71.3752 65.3752C71.2376 65.3752 71.1252 65.3188 71.1252 65.25C71.1252 65.1812 71.0124 65.1252 70.8752 65.1252C70.7376 65.1252 70.6252 65.0688 70.6252 65C70.6252 64.9312 70.5124 64.8752 70.3752 64.8752C70.2376 64.8752 70.1252 64.8188 70.1252 64.75C70.1252 64.6812 69.9564 64.6252 69.75 64.6252C69.5436 64.6252 69.3752 64.5688 69.3752 64.5C69.3752 64.4312 69.2748 64.3752 69.1524 64.3752C69.0304 64.3752 68.8492 64.2624 68.75 64.1252C68.644 63.978 68.4264 63.8752 68.2224 63.8752C68.0312 63.8752 67.8752 63.8188 67.8752 63.75C67.8752 63.6812 67.7624 63.6252 67.6252 63.6252C67.4876 63.6252 67.3752 63.5688 67.3752 63.5C67.3752 63.4312 67.2624 63.3752 67.1252 63.3752C66.9876 63.3752 66.8752 63.3188 66.8752 63.25C66.8752 63.1812 66.7624 63.1252 66.6252 63.1252C66.4876 63.1252 66.3752 63.0688 66.3752 63C66.3752 62.9312 66.2748 62.8752 66.1524 62.8752C66.0304 62.8752 65.8492 62.7624 65.75 62.6252C65.6508 62.4872 65.4264 62.3748 65.25 62.3748C65.0736 62.3748 64.8492 62.2628 64.75 62.1248C64.6508 61.9876 64.4696 61.8748 64.3476 61.8748C64.2252 61.8752 64.1252 61.8188 64.1252 61.75C64.1252 61.6812 64.0124 61.6252 63.8752 61.6252C63.7376 61.6252 63.6252 61.5688 63.6252 61.5C63.6252 61.4312 63.5124 61.3752 63.3752 61.3752C63.2376 61.3752 63.1252 61.3188 63.1252 61.25C63.1252 61.1812 63.0248 61.1252 62.9024 61.1252C62.7804 61.1252 62.5992 61.0124 62.5 60.8752C62.4008 60.7376 62.2196 60.6252 62.0976 60.6252C61.9752 60.6252 61.8752 60.5688 61.8752 60.5C61.8752 60.4312 61.7624 60.3752 61.6252 60.3752C61.4876 60.3752 61.3752 60.3188 61.3752 60.25C61.3752 60.1812 61.2748 60.1252 61.1524 60.1252C61.0304 60.1252 60.8492 60.0124 60.75 59.8752C60.6508 59.7376 60.4696 59.6248 60.3476 59.6252C60.2252 59.6252 60.1252 59.5688 60.1252 59.5C60.1252 59.4312 60.0248 59.3752 59.9024 59.3752C59.7804 59.3752 59.5992 59.2624 59.5 59.1252C59.4008 58.9876 59.2196 58.8752 59.0976 58.8752C58.9752 58.8752 58.8752 58.8188 58.8752 58.75C58.8752 58.6812 58.7748 58.6252 58.6524 58.6252C58.5304 58.6252 58.3492 58.5124 58.25 58.3752C58.1508 58.2376 57.982 58.1252 57.8752 58.1252C57.768 58.1248 57.5992 58.0124 57.5 57.8752C57.4008 57.7376 57.232 57.6252 57.1252 57.6252C57.018 57.6252 56.8492 57.5124 56.75 57.3752C56.6508 57.2376 56.4696 57.1252 56.3476 57.1252C56.2252 57.1252 56.1252 57.0688 56.1252 57C56.1252 56.9312 56.0352 56.8752 55.9252 56.8752C55.8152 56.8752 55.5676 56.7064 55.3752 56.5C55.1824 56.2936 54.9472 56.1252 54.8524 56.1252C54.7576 56.1252 54.5992 56.0124 54.5 55.8752C54.4008 55.7376 54.2424 55.6252 54.1476 55.6252C54.0528 55.6248 53.8176 55.4564 53.6252 55.25C53.4324 55.0436 53.1972 54.8748 53.1024 54.8752C53.0076 54.8752 52.8492 54.7624 52.75 54.6252C52.6508 54.4876 52.4936 54.3752 52.4 54.3752C52.3068 54.3752 52.0144 54.15 51.75 53.8752C51.4856 53.6 51.2044 53.3752 51.1252 53.3752C51.0456 53.3752 50.7644 53.15 50.5 52.8752C50.2356 52.6 49.9552 52.3752 49.8768 52.3752C49.798 52.3752 49.46 52.0936 49.1252 51.75C48.79 51.4064 48.456 51.1252 48.3824 51.1252C48.2064 51.1252 42.6252 45.542 42.6248 45.366C42.6248 45.2912 42.4 45.0144 42.1248 44.75C41.85 44.4856 41.6248 44.2044 41.6248 44.1248C41.6248 44.0456 41.4 43.7644 41.1248 43.5C40.85 43.2356 40.6248 42.9532 40.6248 42.8724C40.6252 42.7916 40.4564 42.5676 40.25 42.3752C40.0436 42.1824 39.8752 41.9472 39.8752 41.8524C39.8748 41.7576 39.7624 41.5992 39.6248 41.5C39.4876 41.4008 39.3748 41.232 39.3752 41.1252C39.3752 41.018 39.2624 40.8492 39.1252 40.75C38.9876 40.6508 38.8752 40.4696 38.8752 40.3476C38.8752 40.2252 38.8188 40.1252 38.75 40.1252C38.6812 40.1252 38.6252 40.0248 38.6252 39.9024C38.6252 39.7804 38.5124 39.5992 38.3752 39.5C38.2376 39.4008 38.1252 39.2196 38.1252 39.0976C38.1252 38.9752 38.0688 38.8752 38 38.8752C37.9312 38.8752 37.8752 38.7748 37.8752 38.6524C37.8752 38.5304 37.7624 38.3492 37.6252 38.25C37.4876 38.1508 37.3748 37.9696 37.3748 37.8476C37.3752 37.7252 37.3188 37.6252 37.25 37.6252C37.1812 37.6252 37.1252 37.5124 37.1252 37.3752C37.1252 37.2376 37.0688 37.1252 37 37.1252C36.9312 37.1252 36.8752 37.0124 36.8752 36.8752C36.8752 36.7376 36.8188 36.6252 36.75 36.6252C36.6812 36.6252 36.6252 36.5124 36.6252 36.3752C36.6252 36.2376 36.5688 36.1252 36.5 36.1252C36.4312 36.1252 36.3752 36.0124 36.3752 35.8752C36.3752 35.7376 36.3188 35.6252 36.25 35.6252C36.1812 35.6252 36.1252 35.4564 36.1252 35.25C36.1252 35.0436 36.0688 34.8752 36 34.8752C35.9312 34.8752 35.8752 34.7624 35.8752 34.6252C35.8752 34.4876 35.8188 34.3752 35.75 34.3752C35.6812 34.3752 35.6252 34.2748 35.6252 34.1524C35.6252 34.0304 35.5124 33.8492 35.3752 33.75C35.228 33.644 35.1252 33.4264 35.1252 33.2224C35.1252 32.846 34.4808 32.6924 34.3228 33.0312C34.2644 33.1564 34.2356 33.1564 34.1772 33.0312C34.0896 32.844 32.8752 32.8148 32.8752 33C32.8752 33.0688 32.7064 33.1252 32.5 33.1252H32.1252V33.8752C32.1252 34.2916 32.0696 34.6252 32 34.6252C31.9196 34.6252 31.8752 35.8752 31.8752 38.1252C31.8752 40.3752 31.9196 41.6252 32 41.6252C32.0728 41.6252 32.1252 42.0416 32.1252 42.6252C32.1252 43.2084 32.1772 43.6252 32.25 43.6252C32.3196 43.6252 32.3752 43.9584 32.3752 44.3752C32.3752 44.7916 32.4304 45.1252 32.5 45.1252C32.5688 45.1252 32.6252 45.4064 32.6252 45.75C32.6252 46.0936 32.6812 46.3752 32.75 46.3752C32.8188 46.3752 32.8752 46.6564 32.8752 47C32.8752 47.3436 32.9312 47.6252 33 47.6252C33.0688 47.6252 33.1252 47.85 33.1252 48.1252C33.1252 48.4 33.1812 48.6252 33.25 48.6252C33.3188 48.6252 33.3752 48.7936 33.3752 49C33.3752 49.2064 33.4312 49.3752 33.5 49.3752C33.5688 49.3752 33.6252 49.6 33.6252 49.8752C33.6252 50.15 33.6812 50.3752 33.75 50.3752C33.8188 50.3752 33.8752 50.4876 33.8752 50.6252C33.8752 50.7624 33.9312 50.8752 34 50.8752C34.0688 50.8752 34.1252 51.1 34.1252 51.3752C34.1252 51.65 34.1812 51.8752 34.25 51.8752C34.3188 51.8752 34.3752 51.9876 34.3752 52.1252C34.3752 52.2624 34.4312 52.3752 34.5 52.3752C34.5688 52.3752 34.6252 52.5436 34.6252 52.75C34.6252 52.9564 34.6812 53.1252 34.75 53.1252C34.8188 53.1252 34.8752 53.2376 34.8752 53.3752C34.8752 53.5124 34.9312 53.6252 35 53.6252C35.0688 53.6252 35.1252 53.7376 35.1252 53.8752C35.1252 54.0124 35.1812 54.1252 35.25 54.1252C35.3188 54.1252 35.3752 54.2936 35.3752 54.5C35.3752 54.7064 35.4312 54.8752 35.5 54.8752C35.5688 54.8752 35.6252 54.9876 35.6252 55.1252C35.6252 55.2624 35.6812 55.3752 35.75 55.3752C35.8188 55.3752 35.8752 55.4876 35.8752 55.6252C35.8752 55.7624 35.9312 55.8752 36 55.8752C36.0688 55.8752 36.1252 55.9876 36.1252 56.1252C36.1252 56.2624 36.1812 56.3752 36.25 56.3752C36.3188 56.3752 36.3752 56.4876 36.3752 56.6252C36.3752 56.7624 36.4312 56.8752 36.5 56.8752C36.5688 56.8752 36.6252 56.9752 36.6252 57.0976C36.6252 57.2196 36.7376 57.4008 36.8752 57.5C37.0124 57.5992 37.1252 57.7804 37.1252 57.9024C37.1252 58.0248 37.1812 58.1252 37.25 58.1252C37.3188 58.1252 37.3752 58.2376 37.3752 58.3752C37.3752 58.5124 37.4312 58.6252 37.5 58.6252C37.5688 58.6252 37.6252 58.7252 37.6252 58.8476C37.6252 58.9696 37.7376 59.1508 37.8752 59.25C38.0124 59.3492 38.1252 59.518 38.1252 59.6248C38.1252 59.732 38.2376 59.9008 38.3748 60C38.5124 60.0992 38.6248 60.2576 38.6252 60.3524C38.6252 60.4472 38.7936 60.6824 39 60.8752C39.2064 61.0676 39.3752 61.3028 39.3752 61.3976C39.3752 61.4924 39.4876 61.6508 39.6252 61.75C39.7624 61.8492 39.8752 62.0076 39.8752 62.1024C39.8752 62.1972 40.0436 62.4324 40.25 62.6248C40.4564 62.8176 40.6252 63.04 40.6252 63.1188C40.6252 63.1976 41.0188 63.6504 41.5 64.1252C41.9812 64.5996 42.3752 65.0476 42.3752 65.1208C42.3752 65.294 44.456 67.3752 44.6292 67.3752C44.7024 67.3752 45.1504 67.7688 45.6252 68.25C46.0996 68.7312 46.5512 69.1252 46.6288 69.1252C46.7064 69.1252 46.9856 69.35 47.25 69.6252C47.5144 69.9 47.7968 70.1252 47.8776 70.1252C47.9584 70.1252 48.1824 70.2936 48.3752 70.5C48.5676 70.7064 48.7928 70.8752 48.8752 70.8752C48.9572 70.8752 49.1824 71.0436 49.3752 71.25C49.5676 71.4564 49.8028 71.6252 49.8976 71.6252C49.9924 71.6252 50.1508 71.7376 50.25 71.8752C50.3492 72.0124 50.518 72.1252 50.6252 72.1252C50.732 72.1252 50.9008 72.2376 51 72.3752C51.0992 72.5124 51.2804 72.6252 51.4024 72.6252C51.5248 72.6252 51.6252 72.6812 51.6252 72.75C51.6252 72.8188 51.7252 72.8752 51.8476 72.8752C51.9696 72.8748 52.1508 72.9876 52.25 73.1248C52.3492 73.2624 52.5304 73.3748 52.6524 73.3752C52.7748 73.3752 52.8752 73.4312 52.8752 73.5C52.8752 73.5688 52.9752 73.6252 53.0976 73.6252C53.2196 73.6252 53.4008 73.7376 53.5 73.8752C53.5992 74.0124 53.7804 74.1252 53.9024 74.1252C54.0248 74.1252 54.1252 74.1812 54.1252 74.25C54.1252 74.3188 54.2376 74.3752 54.3752 74.3752C54.5124 74.3752 54.6252 74.4312 54.6252 74.5C54.6252 74.5688 54.7376 74.6252 54.8752 74.6252C55.0124 74.6252 55.1252 74.6812 55.1252 74.75C55.1252 74.8188 55.2376 74.8752 55.3752 74.8752C55.5124 74.8752 55.6252 74.9312 55.6252 75C55.6252 75.0688 55.7376 75.1252 55.8752 75.1252C56.0124 75.1252 56.1252 75.1812 56.1252 75.25C56.1252 75.3188 56.2376 75.3752 56.3752 75.3752C56.5124 75.3752 56.6252 75.4312 56.6252 75.5C56.6252 75.5688 56.7376 75.6252 56.8752 75.6252C57.0124 75.6252 57.1252 75.6812 57.1252 75.75C57.1252 75.8188 57.2376 75.8752 57.3752 75.8752C57.5124 75.8752 57.6252 75.9312 57.6252 76C57.6252 76.0688 57.7376 76.1252 57.8752 76.1252C58.0124 76.1252 58.1252 76.1812 58.1252 76.25C58.1252 76.3188 58.2376 76.3752 58.3752 76.3752C58.5124 76.3752 58.6252 76.4312 58.6252 76.5C58.6252 76.5688 58.7936 76.6252 59 76.6252C59.2064 76.6252 59.3752 76.6812 59.3752 76.75C59.3752 76.8188 59.4876 76.8752 59.6252 76.8752C59.7624 76.8752 59.8752 76.9312 59.8752 77C59.8752 77.0688 60.0436 77.1252 60.25 77.1252C60.4564 77.1252 60.6252 77.1812 60.6252 77.25C60.6252 77.3188 60.7376 77.3752 60.8752 77.3752C61.0124 77.3752 61.1252 77.4312 61.1252 77.5C61.1252 77.5688 61.2936 77.6252 61.5 77.6252C61.7064 77.6252 61.8752 77.6812 61.8752 77.75C61.8752 77.8188 61.9876 77.8752 62.1252 77.8752C62.2624 77.8752 62.3752 77.9312 62.3752 78C62.3752 78.0688 62.5436 78.1252 62.75 78.1252C62.9564 78.1252 63.1252 78.1812 63.1252 78.25C63.1252 78.3188 63.2936 78.3752 63.5 78.3752C63.7064 78.3752 63.8752 78.4312 63.8752 78.5C63.8752 78.5688 64.0436 78.6252 64.25 78.6252C64.4564 78.6252 64.6252 78.6812 64.6252 78.75C64.6252 78.8188 64.7376 78.8752 64.8752 78.8752C65.0124 78.8752 65.1252 78.9312 65.1252 79C65.1252 79.0688 65.35 79.1252 65.6252 79.1252C65.9 79.1252 66.1252 79.1812 66.1252 79.25C66.1252 79.3188 66.2376 79.3752 66.3752 79.3752C66.7384 79.3752 66.7024 79.438 65.8752 80.25C65.4624 80.6548 65.1252 81.0512 65.1252 81.1304C65.1252 81.2096 64.9564 81.4324 64.75 81.6248C64.5436 81.8176 64.3752 82.0528 64.3752 82.1476C64.3752 82.2424 64.2624 82.4008 64.1252 82.5C63.9876 82.5992 63.8752 82.768 63.8752 82.8752C63.8752 82.982 63.7624 83.1508 63.6252 83.25C63.4876 83.3492 63.3752 83.5304 63.3752 83.6524C63.3752 83.7748 63.3188 83.8752 63.25 83.8752C63.1812 83.8752 63.1252 83.9876 63.1252 84.1252C63.1252 84.2624 63.0688 84.3752 63 84.3752C62.9312 84.3752 62.8752 84.4752 62.8752 84.5976C62.8752 84.7196 62.7624 84.9008 62.6252 85C62.478 85.106 62.3752 85.3236 62.3752 85.5276C62.3752 85.7188 62.3188 85.8752 62.25 85.8752C62.1812 85.8752 62.1252 85.9876 62.1252 86.1252C62.1252 86.2624 62.0688 86.3752 62 86.3752C61.9312 86.3752 61.8752 86.4876 61.8752 86.6252C61.8752 86.7624 61.8188 86.8752 61.75 86.8752C61.6812 86.8752 61.6252 86.9876 61.6252 87.1252C61.6252 87.2624 61.5688 87.3752 61.5 87.3752C61.4312 87.3752 61.3752 87.5436 61.3752 87.75C61.3752 87.9564 61.3188 88.1252 61.25 88.1252C61.1812 88.1252 61.1252 88.2376 61.1252 88.3752C61.1252 88.5124 61.0688 88.6252 61 88.6252C60.9312 88.6252 60.8752 88.7936 60.8752 89C60.8752 89.2064 60.8188 89.3752 60.75 89.3752C60.6812 89.3752 60.6252 89.6 60.6252 89.8752C60.6252 90.15 60.5688 90.3752 60.5 90.3752C60.4312 90.3752 60.3752 90.5436 60.3752 90.75C60.3752 90.9564 60.3188 91.1252 60.25 91.1252C60.1812 91.1252 60.1252 91.35 60.1252 91.6252C60.1252 91.9 60.0688 92.1252 60 92.1252C59.9312 92.1252 59.8752 92.4064 59.8752 92.75C59.8752 93.0936 59.8188 93.3752 59.75 93.3752C59.6804 93.3752 59.6252 93.7084 59.6252 94.1252C59.6252 94.5416 59.5696 94.8752 59.5 94.8752C59.4224 94.8752 59.3752 95.5832 59.3752 96.75C59.3752 97.9168 59.3276 98.6252 59.25 98.6252C59.1784 98.6252 59.1252 99 59.1252 99.5C59.1252 100 59.1784 100.375 59.25 100.375C59.328 100.375 59.3752 101.125 59.3752 102.375C59.3752 103.625 59.422 104.375 59.5 104.375C59.5716 104.375 59.6252 104.75 59.6252 105.25C59.6252 105.75 59.6784 106.125 59.75 106.125C59.8196 106.125 59.8752 106.458 59.8752 106.875C59.8752 107.292 59.9304 107.625 60 107.625C60.0688 107.625 60.1252 107.906 60.1252 108.25C60.1252 108.594 60.1812 108.875 60.25 108.875C60.3188 108.875 60.3752 109.1 60.3752 109.375C60.3752 109.65 60.4312 109.875 60.5 109.875C60.5688 109.875 60.6252 110.156 60.6252 110.5C60.6252 110.844 60.6812 111.125 60.75 111.125C60.8188 111.125 60.8752 111.35 60.8752 111.625C60.8752 111.9 60.9312 112.125 61 112.125C61.0688 112.125 61.1252 112.294 61.1252 112.5C61.1252 112.706 61.1812 112.875 61.25 112.875C61.3188 112.875 61.3752 113.044 61.3752 113.25C61.3752 113.456 61.4312 113.625 61.5 113.625C61.5688 113.625 61.6252 113.794 61.6252 114C61.6252 114.206 61.6812 114.375 61.75 114.375C61.8188 114.375 61.8752 114.6 61.8752 114.875C61.8752 115.15 61.9312 115.375 62 115.375C62.0688 115.375 62.1252 115.544 62.1252 115.75C62.1252 115.956 62.1812 116.125 62.25 116.125C62.3188 116.125 62.3752 116.294 62.3752 116.5C62.3752 116.706 62.4312 116.875 62.5 116.875C62.5688 116.875 62.6252 116.988 62.6252 117.125C62.6252 117.262 62.6812 117.375 62.75 117.375C62.8188 117.375 62.8752 117.544 62.8752 117.75C62.8752 117.956 62.9312 118.125 63 118.125C63.0688 118.125 63.1252 118.238 63.1252 118.375C63.1252 118.512 63.1812 118.625 63.25 118.625C63.3188 118.625 63.3752 118.794 63.3752 119C63.3752 119.206 63.4312 119.375 63.5 119.375C63.5688 119.375 63.6252 119.488 63.6252 119.625C63.6252 119.762 63.6812 119.875 63.75 119.875C63.8188 119.875 63.8752 120.044 63.8752 120.25C63.8752 120.456 63.9312 120.625 64 120.625C64.0688 120.625 64.1252 120.738 64.1252 120.875C64.1252 121.012 64.1812 121.125 64.25 121.125C64.3188 121.125 64.3752 121.238 64.3752 121.375C64.3752 121.512 64.4312 121.625 64.5 121.625C64.5688 121.625 64.6252 121.794 64.6252 122C64.6252 122.206 64.6812 122.375 64.75 122.375C64.8188 122.375 64.8752 122.488 64.8752 122.625C64.8752 122.762 64.9312 122.875 65 122.875C65.0688 122.875 65.1252 122.988 65.1252 123.125C65.1252 123.262 65.1812 123.375 65.25 123.375C65.3188 123.375 65.3752 123.488 65.3752 123.625C65.3752 123.762 65.4312 123.875 65.5 123.875C65.5688 123.875 65.6252 123.988 65.6252 124.125C65.6252 124.262 65.6812 124.375 65.75 124.375C65.8188 124.375 65.8752 124.488 65.8752 124.625C65.8752 124.762 65.9312 124.875 66 124.875C66.0688 124.875 66.1252 124.988 66.1252 125.125C66.1252 125.262 66.1812 125.375 66.25 125.375C66.3188 125.375 66.3752 125.531 66.3752 125.722C66.3748 125.926 66.478 126.144 66.6248 126.25C66.7624 126.349 66.8748 126.53 66.8752 126.652C66.8752 126.775 66.9312 126.875 67 126.875C67.0688 126.875 67.1252 126.988 67.1252 127.125C67.1252 127.262 67.1812 127.375 67.25 127.375C67.3188 127.375 67.3752 127.475 67.3752 127.598C67.3748 127.72 67.4876 127.901 67.6252 128C67.772 128.106 67.8752 128.324 67.8752 128.528C67.8752 128.719 67.9312 128.875 68 128.875C68.0688 128.875 68.1252 128.975 68.1252 129.098C68.1252 129.22 68.2376 129.401 68.3752 129.5C68.5124 129.599 68.6252 129.78 68.6252 129.902C68.6252 130.025 68.6812 130.125 68.75 130.125C68.8188 130.125 68.8752 130.238 68.8752 130.375C68.8752 130.512 68.9312 130.625 69 130.625C69.0688 130.625 69.1252 130.725 69.1252 130.848C69.1252 130.97 69.2376 131.151 69.3752 131.25C69.5124 131.349 69.6252 131.518 69.6252 131.625C69.6252 131.732 69.7376 131.901 69.8752 132C70.0124 132.099 70.1248 132.28 70.1252 132.402C70.1252 132.525 70.1812 132.625 70.25 132.625C70.3188 132.625 70.3752 132.738 70.3752 132.875C70.3752 133.012 70.4312 133.125 70.5 133.125C70.5688 133.125 70.6252 133.225 70.6252 133.348C70.6252 133.47 70.7376 133.651 70.8752 133.75C71.0124 133.849 71.1252 134.018 71.1252 134.125C71.1252 134.232 71.2376 134.401 71.3752 134.5C71.5124 134.599 71.6252 134.78 71.6252 134.902C71.6252 135.025 71.6812 135.125 71.75 135.125C71.8188 135.125 71.8752 135.215 71.8752 135.325C71.8752 135.435 72.0436 135.682 72.25 135.875C72.4564 136.068 72.6252 136.315 72.6252 136.425C72.6252 136.535 72.6812 136.625 72.75 136.625C72.8188 136.625 72.8752 136.725 72.8752 136.848C72.8752 136.97 72.9876 137.151 73.1252 137.25C73.2624 137.349 73.3752 137.518 73.3752 137.625C73.3752 137.732 73.4876 137.901 73.6252 138C73.7624 138.099 73.8752 138.268 73.8752 138.375C73.8752 138.482 73.9876 138.651 74.1252 138.75C74.2624 138.849 74.3752 139.006 74.3748 139.1C74.3748 139.193 74.6 139.486 74.8748 139.75C75.15 140.014 75.3748 140.307 75.3748 140.4C75.3752 140.494 75.4876 140.651 75.6252 140.75C75.7624 140.849 75.8752 141.008 75.8752 141.102C75.8752 141.197 76.0436 141.432 76.25 141.625C76.4564 141.818 76.6252 142.039 76.6252 142.117C76.6252 142.6 77.65 143.243 77.9464 142.946C78.1512 142.742 78.1856 142.375 78 142.375C77.9312 142.375 77.8752 142.206 77.8752 142C77.8752 141.794 77.8188 141.625 77.75 141.625C77.6812 141.625 77.6252 141.512 77.6252 141.375C77.6252 141.238 77.5688 141.125 77.5 141.125C77.4312 141.125 77.3752 140.956 77.3752 140.75C77.3752 140.544 77.3188 140.375 77.25 140.375C77.1812 140.375 77.1252 140.206 77.1252 140C77.1252 139.794 77.0688 139.625 77 139.625C76.9312 139.625 76.8752 139.456 76.8752 139.25C76.8752 139.044 76.8188 138.875 76.75 138.875C76.6812 138.875 76.6252 138.762 76.6252 138.625C76.6252 138.488 76.5688 138.375 76.5 138.375C76.4312 138.375 76.3752 138.206 76.3752 138C76.3752 137.794 76.3188 137.625 76.25 137.625C76.1812 137.625 76.1252 137.456 76.1252 137.25C76.1252 137.044 76.0688 136.875 76 136.875C75.9312 136.875 75.8752 136.65 75.8752 136.375C75.8752 136.1 75.8188 135.875 75.75 135.875C75.6812 135.875 75.6252 135.706 75.6252 135.5C75.6252 135.294 75.5688 135.125 75.5 135.125C75.4312 135.125 75.3752 134.956 75.3752 134.75C75.3752 134.544 75.3188 134.375 75.25 134.375C75.1812 134.375 75.1252 134.206 75.1252 134C75.1252 133.794 75.0688 133.625 75 133.625C74.9312 133.625 74.8752 133.4 74.8752 133.125C74.8752 132.85 74.8188 132.625 74.75 132.625C74.6812 132.625 74.6252 132.4 74.6252 132.125C74.6252 131.85 74.5688 131.625 74.5 131.625C74.4312 131.625 74.3752 131.512 74.3752 131.375C74.3752 131.238 74.3188 131.125 74.25 131.125C74.1812 131.125 74.1252 130.844 74.1252 130.5C74.1252 130.156 74.0688 129.875 74 129.875C73.9312 129.875 73.8752 129.65 73.8752 129.375C73.8752 129.1 73.8188 128.875 73.75 128.875C73.6812 128.875 73.6252 128.65 73.6252 128.375C73.6252 128.1 73.5688 127.875 73.5 127.875C73.4312 127.875 73.3752 127.594 73.3752 127.25C73.3752 126.906 73.3188 126.625 73.25 126.625C73.1812 126.625 73.1252 126.344 73.1252 126C73.1252 125.656 73.0688 125.375 73 125.375C72.9312 125.375 72.8752 125.15 72.8752 124.875C72.8752 124.6 72.8188 124.375 72.75 124.375C72.6784 124.375 72.6252 124 72.6252 123.5C72.6252 123 72.5716 122.625 72.5 122.625C72.4284 122.625 72.3752 122.25 72.3752 121.75C72.3752 121.25 72.3216 120.875 72.25 120.875C72.176 120.875 72.1252 120.417 72.1252 119.75C72.1252 119.083 72.074 118.625 72 118.625C71.926 118.625 71.8752 118.167 71.8752 117.5C71.8752 116.833 71.824 116.375 71.75 116.375C71.6692 116.375 71.6252 115 71.6252 112.5C71.6252 110 71.6692 108.625 71.75 108.625C71.824 108.625 71.8752 108.167 71.8752 107.5C71.8752 106.833 71.926 106.375 72 106.375C72.0728 106.375 72.1252 105.958 72.1252 105.375C72.1252 104.792 72.1772 104.375 72.25 104.375C72.3188 104.375 72.3752 104.094 72.3752 103.75C72.3752 103.406 72.4312 103.125 72.5 103.125C72.5688 103.125 72.6252 102.844 72.6252 102.5C72.6252 102.156 72.6812 101.875 72.75 101.875C72.8188 101.875 72.8752 101.706 72.8752 101.5C72.8752 101.294 72.9312 101.125 73 101.125C73.0688 101.125 73.1252 100.9 73.1252 100.625C73.1252 100.35 73.1812 100.125 73.25 100.125C73.3188 100.125 73.3752 99.9564 73.3752 99.75C73.3752 99.5436 73.4312 99.3752 73.5 99.3752C73.5688 99.3752 73.6252 99.2064 73.6252 99C73.6252 98.7936 73.6812 98.6252 73.75 98.6252C73.8188 98.6252 73.8752 98.4564 73.8752 98.25C73.8752 98.0436 73.9312 97.8752 74 97.8752C74.0688 97.8752 74.1252 97.7188 74.1252 97.5276C74.1252 97.3236 74.228 97.106 74.3752 97C74.522 96.894 74.6252 96.6764 74.6252 96.4724C74.6252 96.2812 74.6812 96.1252 74.75 96.1252C74.8188 96.1252 74.8752 95.9688 74.8752 95.7776C74.8752 95.5736 74.978 95.356 75.1252 95.25C75.2624 95.1508 75.3752 94.9696 75.3752 94.8476C75.3752 94.7252 75.4312 94.6252 75.5 94.6252C75.5688 94.6252 75.6252 94.5124 75.6252 94.3752C75.6252 94.2376 75.6812 94.1252 75.75 94.1252C75.8188 94.1252 75.8752 94.0124 75.8752 93.8752C75.8752 93.7376 75.9312 93.6252 76 93.6252C76.0688 93.6252 76.1252 93.5248 76.1252 93.4024C76.1252 93.2804 76.2376 93.0992 76.3752 93C76.5124 92.9008 76.6252 92.732 76.6252 92.6252C76.6252 92.518 76.7376 92.3492 76.8752 92.25C77.0124 92.1508 77.1252 91.9696 77.1252 91.8476C77.1252 91.7252 77.1812 91.6252 77.25 91.6252C77.3188 91.6252 77.3752 91.5352 77.3752 91.4252C77.3752 91.3152 77.5436 91.0676 77.75 90.8748C77.9564 90.6824 78.1252 90.4592 78.1252 90.3792C78.1252 90.2992 78.4064 89.96 78.75 89.6248C79.0936 89.29 79.3752 88.9552 79.3752 88.8804C79.3752 88.7072 80.7016 87.3752 80.874 87.3752C81.0488 87.3752 83.1252 89.46 83.1252 89.6356C83.1252 89.712 83.2936 89.9324 83.5 90.1248C83.7064 90.3176 83.8752 90.5428 83.8752 90.6248C83.8752 90.7072 84.0436 90.9324 84.25 91.1252C84.4564 91.3176 84.6252 91.5528 84.6252 91.6476C84.6252 91.7424 84.7376 91.9008 84.8752 92C85.0124 92.0992 85.1252 92.2804 85.1252 92.4024C85.1252 92.5248 85.1812 92.6252 85.25 92.6252C85.3188 92.6252 85.3752 92.7252 85.3752 92.8476C85.3752 92.9696 85.4876 93.1508 85.6252 93.25C85.7628 93.3492 85.8752 93.5736 85.8752 93.75C85.8752 93.9264 85.9872 94.1508 86.1252 94.25C86.2624 94.3492 86.3752 94.5304 86.3752 94.6524C86.3752 94.7748 86.4312 94.8752 86.5 94.8752C86.5688 94.8752 86.6252 94.9876 86.6252 95.1252C86.6252 95.2624 86.6812 95.3752 86.75 95.3752C86.8188 95.3752 86.8752 95.4876 86.8752 95.6252C86.8752 95.7624 86.9312 95.8752 87 95.8752C87.0688 95.8752 87.1252 96.0436 87.1252 96.25C87.1252 96.4564 87.1812 96.6252 87.25 96.6252C87.3188 96.6252 87.3752 96.7376 87.3752 96.8752C87.3752 97.0124 87.4312 97.1252 87.5 97.1252C87.5688 97.1252 87.6252 97.2376 87.6252 97.3752C87.6252 97.5124 87.6812 97.6252 87.75 97.6252C87.8188 97.6252 87.8752 97.7936 87.8752 98C87.8752 98.2064 87.9312 98.3752 88 98.3752C88.0688 98.3752 88.1252 98.5436 88.1252 98.75C88.1252 98.9564 88.1812 99.1252 88.25 99.1252C88.3188 99.1252 88.3752 99.35 88.3752 99.6252C88.3752 99.9 88.4312 100.125 88.5 100.125C88.5688 100.125 88.6252 100.294 88.6252 100.5C88.6252 100.706 88.6812 100.875 88.75 100.875C88.8188 100.875 88.8752 101.044 88.8752 101.25C88.8752 101.456 88.9312 101.625 89 101.625C89.0688 101.625 89.1252 101.906 89.1252 102.25C89.1252 102.594 89.1812 102.875 89.25 102.875C89.3196 102.875 89.3752 103.208 89.3752 103.625C89.3752 104.042 89.4304 104.375 89.5 104.375C89.5696 104.375 89.6252 104.708 89.6252 105.125C89.6252 105.542 89.6804 105.875 89.75 105.875C89.8228 105.875 89.8752 106.292 89.8752 106.875C89.8752 107.458 89.9272 107.875 90 107.875C90.0812 107.875 90.1252 109.458 90.1252 112.375C90.1252 115.292 90.0812 116.875 90 116.875C89.9252 116.875 89.8752 117.375 89.8752 118.125C89.8752 118.875 89.8252 119.375 89.75 119.375C89.6784 119.375 89.6252 119.75 89.6252 120.25C89.6252 120.75 89.5716 121.125 89.5 121.125C89.4284 121.125 89.3752 121.5 89.3752 122C89.3752 122.5 89.3216 122.875 89.25 122.875C89.1784 122.875 89.1252 123.25 89.1252 123.75C89.1252 124.25 89.0716 124.625 89 124.625C88.9312 124.625 88.8752 124.906 88.8752 125.25C88.8752 125.594 88.8188 125.875 88.75 125.875C88.6812 125.875 88.6252 126.1 88.6252 126.375C88.6252 126.65 88.5688 126.875 88.5 126.875C88.4312 126.875 88.3752 127.1 88.3752 127.375C88.3752 127.65 88.3188 127.875 88.25 127.875C88.1812 127.875 88.1252 128.156 88.1252 128.5C88.1252 128.844 88.0688 129.125 88 129.125C87.9312 129.125 87.8752 129.35 87.8752 129.625C87.8752 129.9 87.8188 130.125 87.75 130.125C87.6812 130.125 87.6252 130.35 87.6252 130.625C87.6252 130.9 87.5688 131.125 87.5 131.125C87.4312 131.125 87.3752 131.294 87.3752 131.5C87.3752 131.706 87.3188 131.875 87.25 131.875C87.1812 131.875 87.1252 132.1 87.1252 132.375C87.1252 132.65 87.0688 132.875 87 132.875C86.9312 132.875 86.8752 133.1 86.8752 133.375C86.8752 133.65 86.8188 133.875 86.75 133.875C86.6812 133.875 86.6252 134.044 86.6252 134.25C86.6252 134.456 86.5688 134.625 86.5 134.625C86.4312 134.625 86.3752 134.794 86.3752 135C86.3752 135.206 86.3188 135.375 86.25 135.375C86.1812 135.375 86.1252 135.544 86.1252 135.75C86.1252 135.956 86.0688 136.125 86 136.125C85.9312 136.125 85.8752 136.294 85.8752 136.5C85.8752 136.706 85.8188 136.875 85.75 136.875C85.6812 136.875 85.6252 137.044 85.6252 137.25C85.6252 137.456 85.5688 137.625 85.5 137.625C85.4312 137.625 85.3752 137.794 85.3752 138C85.3752 138.206 85.3188 138.375 85.25 138.375C85.1812 138.375 85.1252 138.544 85.1252 138.75C85.1252 138.956 85.0688 139.125 85 139.125C84.9312 139.125 84.8752 139.238 84.8752 139.375C84.8752 139.512 84.8188 139.625 84.75 139.625C84.6812 139.625 84.6252 139.794 84.6252 140C84.6252 140.206 84.5688 140.375 84.5 140.375C84.4312 140.375 84.3752 140.544 84.3752 140.75C84.3752 140.956 84.3188 141.125 84.25 141.125C84.1812 141.125 84.1252 141.294 84.1252 141.5C84.1252 141.706 84.0688 141.875 84 141.875C83.9312 141.875 83.8752 142.1 83.8752 142.375C83.8752 142.829 83.9048 142.875 84.1964 142.875C84.5328 142.875 84.8752 142.621 84.8752 142.372C84.8752 142.291 85.0436 142.068 85.25 141.875C85.4564 141.682 85.6252 141.457 85.6252 141.375C85.6252 141.293 85.7936 141.068 86 140.875C86.2064 140.682 86.3752 140.457 86.3752 140.375C86.3752 140.293 86.5436 140.068 86.75 139.875C86.9564 139.682 87.1252 139.447 87.1252 139.352C87.1252 139.258 87.2376 139.099 87.3752 139C87.5124 138.901 87.6252 138.732 87.6252 138.625C87.6252 138.518 87.7376 138.349 87.8752 138.25C88.0124 138.151 88.1252 137.982 88.1252 137.875C88.1252 137.768 88.2376 137.599 88.3752 137.5C88.5124 137.401 88.6252 137.232 88.6252 137.125C88.6252 137.018 88.7376 136.849 88.8752 136.75C89.0124 136.651 89.1252 136.482 89.1252 136.375C89.1252 136.268 89.2376 136.099 89.3752 136C89.5124 135.901 89.6252 135.732 89.6252 135.625C89.6252 135.518 89.7376 135.349 89.8752 135.25C90.0124 135.151 90.1252 134.97 90.1252 134.848C90.1252 134.725 90.1812 134.625 90.25 134.625C90.3188 134.625 90.3752 134.525 90.3752 134.402C90.3752 134.28 90.4876 134.099 90.6252 134C90.7624 133.901 90.8752 133.732 90.8752 133.625C90.8752 133.518 90.9876 133.349 91.1252 133.25C91.2624 133.151 91.3752 132.97 91.3752 132.848C91.3752 132.725 91.4312 132.625 91.5 132.625C91.5688 132.625 91.6252 132.525 91.6252 132.402C91.6252 132.28 91.7376 132.099 91.8752 132C92.0124 131.901 92.1252 131.72 92.1252 131.598C92.1252 131.475 92.1812 131.375 92.25 131.375C92.3188 131.375 92.3752 131.262 92.3752 131.125C92.3752 130.988 92.4312 130.875 92.5 130.875C92.5688 130.875 92.6252 130.775 92.6252 130.652C92.6252 130.53 92.7376 130.349 92.8752 130.25C93.0124 130.151 93.1252 129.97 93.1252 129.848C93.1252 129.725 93.1812 129.625 93.25 129.625C93.3188 129.625 93.3752 129.512 93.3752 129.375C93.3752 129.238 93.4312 129.125 93.5 129.125C93.5688 129.125 93.6252 129.012 93.6252 128.875C93.6252 128.738 93.6812 128.625 93.75 128.625C93.8188 128.625 93.8752 128.525 93.8752 128.402C93.8752 128.28 93.9876 128.099 94.1252 128C94.2624 127.901 94.3752 127.72 94.3752 127.598C94.3752 127.475 94.4312 127.375 94.5 127.375C94.5688 127.375 94.6252 127.262 94.6252 127.125C94.6252 126.988 94.6812 126.875 94.75 126.875C94.8188 126.875 94.8752 126.762 94.8752 126.625C94.8752 126.488 94.9312 126.375 95 126.375C95.0688 126.375 95.1252 126.262 95.1252 126.125C95.1252 125.988 95.1812 125.875 95.25 125.875C95.3188 125.875 95.3752 125.762 95.3752 125.625C95.3752 125.488 95.4312 125.375 95.5 125.375C95.5688 125.375 95.6252 125.262 95.6252 125.125C95.6252 124.988 95.6812 124.875 95.75 124.875C95.8188 124.875 95.8752 124.762 95.8752 124.625C95.8752 124.488 95.9312 124.375 96 124.375C96.0688 124.375 96.1252 124.262 96.1252 124.125C96.1252 123.988 96.1812 123.875 96.25 123.875C96.3188 123.875 96.3752 123.706 96.3752 123.5C96.3752 123.294 96.4312 123.125 96.5 123.125C96.5688 123.125 96.6252 123.012 96.6252 122.875C96.6252 122.738 96.6812 122.625 96.75 122.625C96.8188 122.625 96.8752 122.512 96.8752 122.375C96.8752 122.238 96.9312 122.125 97 122.125C97.0688 122.125 97.1252 122.012 97.1252 121.875C97.1252 121.738 97.1812 121.625 97.25 121.625C97.3188 121.625 97.3752 121.456 97.3752 121.25C97.3752 121.044 97.4312 120.875 97.5 120.875C97.5688 120.875 97.6252 120.762 97.6252 120.625C97.6252 120.488 97.6812 120.375 97.75 120.375C97.8188 120.375 97.8752 120.262 97.8752 120.125C97.8752 119.988 97.9312 119.875 98 119.875C98.0688 119.875 98.1252 119.762 98.1252 119.625C98.1252 119.488 98.1812 119.375 98.25 119.375C98.3188 119.375 98.3752 119.206 98.3752 119C98.3752 118.794 98.4312 118.625 98.5 118.625C98.5688 118.625 98.6252 118.456 98.6252 118.25C98.6252 118.044 98.6812 117.875 98.75 117.875C98.8188 117.875 98.8752 117.706 98.8752 117.5C98.8752 117.294 98.9312 117.125 99 117.125C99.0688 117.125 99.1252 117.012 99.1252 116.875C99.1252 116.738 99.1812 116.625 99.25 116.625C99.3188 116.625 99.3752 116.456 99.3752 116.25C99.3752 116.044 99.4312 115.875 99.5 115.875C99.5688 115.875 99.6252 115.706 99.6252 115.5C99.6252 115.294 99.6812 115.125 99.75 115.125C99.8188 115.125 99.8752 114.956 99.8752 114.75C99.8752 114.544 99.9312 114.375 100 114.375C100.069 114.375 100.125 114.206 100.125 114C100.125 113.794 100.181 113.625 100.25 113.625C100.319 113.625 100.375 113.4 100.375 113.125C100.375 112.85 100.431 112.625 100.5 112.625C100.569 112.625 100.625 112.456 100.625 112.25C100.625 112.044 100.681 111.875 100.75 111.875C100.819 111.875 100.875 111.65 100.875 111.375C100.875 111.1 100.931 110.875 101 110.875C101.069 110.875 101.125 110.65 101.125 110.375C101.125 110.1 101.181 109.875 101.25 109.875C101.319 109.875 101.375 109.594 101.375 109.25C101.375 108.906 101.431 108.625 101.5 108.625C101.569 108.625 101.625 108.344 101.625 108C101.625 107.656 101.681 107.375 101.75 107.375C101.819 107.375 101.875 107.094 101.875 106.75C101.875 106.406 101.931 106.125 102 106.125C102.073 106.125 102.125 105.708 102.125 105.125C102.125 104.542 102.177 104.125 102.25 104.125C102.331 104.125 102.375 102.542 102.375 99.6252C102.375 96.7084 102.331 95.1252 102.25 95.1252C102.18 95.1252 102.125 94.7916 102.125 94.3752C102.125 93.9584 102.07 93.6252 102 93.6252C101.931 93.6252 101.875 93.3436 101.875 93C101.875 92.6564 101.819 92.3752 101.75 92.3752C101.681 92.3752 101.625 92.15 101.625 91.8752C101.625 91.6 101.569 91.3752 101.5 91.3752C101.431 91.3752 101.375 91.15 101.375 90.8752C101.375 90.6 101.319 90.3752 101.25 90.3752C101.181 90.3752 101.125 90.2064 101.125 90C101.125 89.7936 101.069 89.6252 101 89.6252C100.931 89.6252 100.875 89.4564 100.875 89.25C100.875 89.0436 100.819 88.8752 100.75 88.8752C100.681 88.8752 100.625 88.7064 100.625 88.5C100.625 88.2936 100.569 88.1252 100.5 88.1252C100.431 88.1252 100.375 88.0124 100.375 87.8752C100.375 87.7376 100.319 87.6252 100.25 87.6252C100.181 87.6252 100.125 87.4564 100.125 87.25C100.125 87.0436 100.069 86.8752 100 86.8752C99.9312 86.8752 99.8752 86.7624 99.8752 86.6252C99.8752 86.4876 99.8188 86.3752 99.75 86.3752C99.6812 86.3752 99.6252 86.2624 99.6252 86.1252C99.6252 85.9876 99.5688 85.8752 99.5 85.8752C99.4312 85.8752 99.3752 85.7624 99.3752 85.6252C99.3752 85.4876 99.3188 85.3752 99.25 85.3752C99.1812 85.3752 99.1252 85.2624 99.1252 85.1252C99.1252 84.9876 99.0688 84.8752 99 84.8752C98.9312 84.8752 98.8752 84.7748 98.8752 84.6524C98.8752 84.5304 98.7624 84.3492 98.6252 84.25C98.4876 84.1508 98.3752 83.9696 98.3752 83.8476C98.3752 83.7252 98.3188 83.6252 98.25 83.6252C98.1812 83.6252 98.1252 83.5248 98.1252 83.4024C98.1252 83.2804 98.0124 83.0992 97.8752 83C97.7376 82.9008 97.6252 82.732 97.6252 82.6252C97.6252 82.518 97.5124 82.3492 97.3752 82.25C97.2376 82.1508 97.1252 81.9936 97.1252 81.9C97.1252 81.8068 96.9 81.5144 96.6252 81.25C96.35 80.9856 96.1248 80.7044 96.1252 80.6252C96.1252 80.5456 95.9 80.2644 95.6252 80C95.026 79.4244 95.016 79.3752 95.5 79.3752C95.7064 79.3752 95.8752 79.3188 95.8752 79.25C95.8752 79.1812 96.1 79.1252 96.3752 79.1252C96.65 79.1252 96.8752 79.0688 96.8752 79C96.8752 78.9312 96.9876 78.8752 97.1252 78.8752C97.2624 78.8752 97.3752 78.8188 97.3752 78.75C97.3752 78.6812 97.5436 78.6252 97.75 78.6252C97.9564 78.6252 98.1252 78.5688 98.1252 78.5C98.1252 78.4312 98.2376 78.3752 98.3752 78.3752C98.5124 78.3752 98.6252 78.3188 98.6252 78.25C98.6252 78.1812 98.7936 78.1252 99 78.1252C99.2064 78.1252 99.3752 78.0688 99.3752 78C99.3752 77.9312 99.5436 77.8752 99.75 77.8752C99.9564 77.8752 100.125 77.8188 100.125 77.75C100.125 77.6812 100.294 77.6252 100.5 77.6252C100.706 77.6252 100.875 77.5688 100.875 77.5C100.875 77.4312 100.988 77.3752 101.125 77.3752C101.262 77.3752 101.375 77.3188 101.375 77.25C101.375 77.1812 101.544 77.1252 101.75 77.1252C101.956 77.1252 102.125 77.0688 102.125 77C102.125 76.9312 102.238 76.8752 102.375 76.8752C102.512 76.8752 102.625 76.8188 102.625 76.75C102.625 76.6812 102.738 76.6252 102.875 76.6252C103.012 76.6252 103.125 76.5688 103.125 76.5C103.125 76.4312 103.238 76.3752 103.375 76.3752C103.512 76.3752 103.625 76.3188 103.625 76.25C103.625 76.1812 103.738 76.1252 103.875 76.1252C104.012 76.1252 104.125 76.0688 104.125 76C104.125 75.9312 104.294 75.8752 104.5 75.8752C104.706 75.8752 104.875 75.8188 104.875 75.75C104.875 75.6812 104.988 75.6252 105.125 75.6252C105.262 75.6252 105.375 75.5688 105.375 75.5C105.375 75.4312 105.475 75.3752 105.598 75.3752C105.72 75.3752 105.901 75.2624 106 75.1252C106.099 74.9876 106.28 74.8752 106.402 74.8752C106.525 74.8752 106.625 74.8188 106.625 74.75C106.625 74.6812 106.738 74.6252 106.875 74.6252C107.012 74.6252 107.125 74.5688 107.125 74.5C107.125 74.4312 107.238 74.3752 107.375 74.3752C107.512 74.3752 107.625 74.3188 107.625 74.25C107.625 74.1812 107.738 74.1252 107.875 74.1252C108.012 74.1252 108.125 74.0688 108.125 74C108.125 73.9312 108.238 73.8752 108.375 73.8752C108.512 73.8752 108.625 73.8188 108.625 73.75C108.625 73.6812 108.725 73.6252 108.848 73.6252C108.97 73.6252 109.151 73.5124 109.25 73.3752C109.349 73.2376 109.518 73.1252 109.625 73.1252C109.732 73.1252 109.901 73.0124 110 72.8752C110.099 72.7376 110.268 72.6252 110.375 72.6252C110.482 72.6252 110.651 72.5124 110.75 72.3752C110.849 72.2376 111.018 72.1252 111.125 72.1252C111.232 72.1252 111.401 72.0124 111.5 71.8752C111.599 71.7376 111.768 71.6252 111.875 71.6252C111.982 71.6252 112.151 71.5124 112.25 71.3752C112.349 71.2376 112.518 71.1252 112.625 71.1252C112.732 71.1252 112.901 71.0124 113 70.8752C113.099 70.7376 113.256 70.6252 113.35 70.6252C113.443 70.6252 113.736 70.4 114 70.1252C114.264 69.85 114.544 69.6252 114.622 69.6252C114.7 69.6252 115.095 69.2876 115.5 68.8752C115.905 68.4624 116.296 68.1252 116.369 68.1252C116.544 68.1252 120.125 64.5424 120.125 64.368C120.125 64.294 120.406 63.96 120.75 63.6248C121.094 63.29 121.375 62.9508 121.375 62.8708C121.375 62.7908 121.544 62.5676 121.75 62.3748C121.956 62.1824 122.125 61.9572 122.125 61.8748C122.125 61.7928 122.294 61.5676 122.5 61.3748C122.706 61.1824 122.875 60.9472 122.875 60.8524C122.875 60.7576 122.988 60.5992 123.125 60.5C123.262 60.4008 123.375 60.2196 123.375 60.0976C123.375 59.9752 123.431 59.8752 123.5 59.8752C123.569 59.8752 123.625 59.7748 123.625 59.6524C123.625 59.5304 123.738 59.3492 123.875 59.25C124.012 59.1508 124.125 58.982 124.125 58.8752C124.125 58.768 124.238 58.5992 124.375 58.5C124.512 58.4008 124.625 58.2196 124.625 58.0976C124.625 57.9752 124.681 57.8752 124.75 57.8752C124.819 57.8752 124.875 57.7624 124.875 57.6252C124.875 57.4876 124.931 57.3752 125 57.3752C125.069 57.3752 125.125 57.2624 125.125 57.1252C125.125 56.9876 125.181 56.8752 125.25 56.8752C125.319 56.8752 125.375 56.7748 125.375 56.6524C125.375 56.5304 125.488 56.3492 125.625 56.25C125.772 56.144 125.875 55.9264 125.875 55.7224C125.875 55.5312 125.931 55.3752 126 55.3752C126.069 55.3752 126.125 55.2624 126.125 55.1252C126.125 54.9876 126.181 54.8752 126.25 54.8752C126.319 54.8752 126.375 54.7624 126.375 54.6252C126.375 54.4876 126.431 54.3752 126.5 54.3752C126.569 54.3752 126.625 54.2624 126.625 54.1252C126.625 53.9876 126.681 53.8752 126.75 53.8752C126.819 53.8752 126.875 53.7064 126.875 53.5C126.875 53.2936 126.931 53.1252 127 53.1252C127.069 53.1252 127.125 53.0124 127.125 52.8752C127.125 52.7376 127.181 52.6252 127.25 52.6252C127.319 52.6252 127.375 52.4564 127.375 52.25C127.375 52.0436 127.431 51.8752 127.5 51.8752C127.569 51.8752 127.625 51.7064 127.625 51.5C127.625 51.2936 127.681 51.1252 127.75 51.1252C127.819 51.1252 127.875 50.9564 127.875 50.75C127.875 50.5436 127.931 50.3752 128 50.3752C128.069 50.3752 128.125 50.15 128.125 49.8752C128.125 49.6 128.181 49.3752 128.25 49.3752C128.319 49.3752 128.375 49.2064 128.375 49C128.375 48.7936 128.431 48.6252 128.5 48.6252C128.569 48.6252 128.625 48.4564 128.625 48.25C128.625 48.0436 128.681 47.8752 128.75 47.8752C128.819 47.8752 128.875 47.5936 128.875 47.25C128.875 46.9064 128.931 46.6252 129 46.6252C129.069 46.6252 129.125 46.3436 129.125 46C129.125 45.6564 129.181 45.3752 129.25 45.3752C129.32 45.3752 129.375 45.0416 129.375 44.6252C129.375 44.2084 129.43 43.8752 129.5 43.8752C129.573 43.8752 129.625 43.4584 129.625 42.8752C129.625 42.2916 129.677 41.8752 129.75 41.8752C129.831 41.8752 129.875 40.4584 129.875 37.8752C129.875 35.2916 129.831 33.8752 129.75 33.8752C129.678 33.8752 129.625 33.5 129.625 33C129.625 32.5 129.572 32.1252 129.5 32.1252C129.431 32.1252 129.375 31.8436 129.375 31.5C129.375 31.1564 129.319 30.8752 129.25 30.8752C129.181 30.8752 129.125 30.7624 129.125 30.6252C129.125 30.4304 129.042 30.3752 128.75 30.3752C128.544 30.3752 128.375 30.4312 128.375 30.5ZM34.906 51.3156C34.9392 51.4888 34.924 51.6572 34.8724 51.6892C34.8204 51.7212 34.7532 51.5792 34.7232 51.3736C34.6568 50.9216 34.8208 50.8692 34.906 51.3156ZM39 51.5C39 51.7752 38.9436 52 38.8752 52C38.8064 52 38.75 51.7752 38.75 51.5C38.75 51.2252 38.8064 51 38.8752 51C38.9436 51 39 51.2252 39 51.5ZM42.7812 51.3384C42.6264 51.368 42.3736 51.368 42.2188 51.3384C42.064 51.3084 42.1908 51.284 42.5 51.284C42.8092 51.284 42.936 51.3084 42.7812 51.3384ZM43 52C43 52.0688 42.7752 52.1252 42.5 52.1252C42.2252 52.1252 42 52.0688 42 52C42 51.9312 42.2252 51.8752 42.5 51.8752C42.7752 51.8752 43 51.9312 43 52ZM35.7752 52.15C35.6584 52.2668 35.5916 52.2668 35.4752 52.15C35.3584 52.0332 35.3916 52 35.6252 52C35.8584 52 35.8916 52.0332 35.7752 52.15ZM40.6092 52.564C40.5848 52.9636 40.6364 53.19 40.7872 53.3408C40.9876 53.5412 41 53.5412 41 53.3392C41 53.156 41.1484 53.122 42.0312 53.1052C43.3228 53.0808 43.3028 53.0796 43.6836 53.1752C43.97 53.2472 44 53.2188 44 52.8772C44 52.5608 44.0492 52.5 44.304 52.5C44.4984 52.5 44.6368 52.4096 44.6876 52.25C44.776 51.9716 45 51.9088 45 52.1624C45 52.9596 45.4648 53.1252 47.7048 53.1252C48.8536 53.1252 49.0004 53.1496 49.004 53.3436C49.0072 53.5232 49.0588 53.5048 49.2908 53.2416C49.62 52.8684 49.8232 52.9008 50.2368 53.3936C50.4016 53.5896 50.622 53.75 50.7264 53.75C50.8312 53.75 50.8796 53.7872 50.834 53.8328C50.7884 53.8784 50.9616 54.012 51.2192 54.1304C51.4768 54.2484 51.8116 54.464 51.9636 54.61C52.1152 54.7556 52.3124 54.876 52.4012 54.8768C52.5156 54.8784 52.508 54.914 52.3752 55C52.2196 55.1004 52.2304 55.1216 52.438 55.1232C52.6396 55.1248 54.006 56.0248 54.7136 56.6224C54.7964 56.6928 54.9036 56.75 54.9516 56.75C54.9996 56.75 55.2232 56.8908 55.4488 57.0624C55.674 57.2344 55.8872 57.3752 55.9228 57.3752C55.958 57.3752 56.1388 57.5156 56.3244 57.6876C56.5096 57.8592 56.704 58 56.7556 58C56.8076 58 57.6852 58.5152 58.706 59.1448C59.7268 59.7744 60.7872 60.4128 61.0624 60.5636C61.3376 60.7144 61.9 61.0228 62.3124 61.2492C66.2232 63.394 69.7472 65.1144 73.75 66.8332C73.9908 66.9364 74.2744 67.0656 74.3804 67.1204C74.4864 67.1748 75.358 67.5416 76.3176 67.9348C77.2772 68.3284 78.2396 68.7288 78.4564 68.8252C78.6732 68.9212 78.8824 69 78.922 69C78.9616 69 79.362 69.1688 79.8124 69.3752C80.8784 69.8632 80.8124 69.8712 82.8948 69C83.8808 68.5876 84.758 68.2504 84.8436 68.25C84.9296 68.25 85 68.1936 85 68.1252C85 68.0564 85.0772 68 85.1716 68C85.3656 68 86.2504 67.6316 88.2848 66.7044C88.682 66.5232 89.0316 66.3752 89.0624 66.3752C89.1308 66.3752 90.1712 65.9108 91.8124 65.148C93.2208 64.4932 97.5584 62.3084 98.6172 61.72C99.6116 61.168 102.494 59.5064 102.938 59.2304C103.144 59.1016 103.411 58.9624 103.531 58.9212C103.652 58.8796 103.75 58.8088 103.75 58.764C103.75 58.7188 103.961 58.5724 104.219 58.4384C104.736 58.1696 106.901 56.758 107 56.6248C107.034 56.5784 107.344 56.3788 107.688 56.1804C108.031 55.982 108.452 55.6916 108.624 55.5348C108.795 55.3784 108.982 55.25 109.038 55.25C109.095 55.25 109.326 55.1092 109.551 54.9376C109.777 54.7656 110.068 54.6204 110.199 54.6152C110.333 54.6096 110.368 54.5772 110.28 54.542C110.078 54.4604 110.206 54.25 110.458 54.25C110.578 54.25 110.625 54.3208 110.58 54.4356C110.522 54.5896 110.55 54.596 110.748 54.472C110.909 54.3716 110.948 54.276 110.868 54.1792C110.787 54.082 110.856 53.928 111.081 53.7032L111.413 53.3716L111.553 53.6544C111.761 54.0732 113.5 54.16 113.5 53.7516C113.5 53.4812 112.944 53.46 112.137 53.7C111.918 53.7648 111.861 53.7484 111.929 53.6392C111.98 53.5568 111.954 53.4072 111.87 53.3068C111.745 53.1556 111.784 53.112 112.098 53.0492C112.314 53.006 112.503 52.8768 112.536 52.7504C112.64 52.3516 113.5 52.7128 113.5 53.1556C113.5 53.4168 113.56 53.5 113.75 53.5C113.922 53.5 114 53.5832 114 53.768C114 54.0212 114.041 54.0312 114.768 53.9552C115.191 53.9112 116.091 53.8752 116.768 53.8752C117.506 53.8752 118 53.8248 118 53.75C118 53.6772 117.583 53.6252 117 53.6252C116.083 53.6252 116 53.604 116 53.3752C116 53.146 116.083 53.1252 117 53.1252H118V52.7268V52.3284L118.35 52.664C118.544 52.8488 118.768 53 118.85 53C118.933 53 119 53.0564 119 53.1252C119 53.1936 119.225 53.25 119.5 53.25C119.775 53.25 120 53.3064 120 53.3752C120 53.4436 119.775 53.5 119.5 53.5C119.225 53.5 119 53.5564 119 53.6252C119 53.6936 119.225 53.75 119.5 53.75C119.775 53.75 120 53.8064 120 53.8752C120 53.9436 120.22 54 120.49 54C120.767 54 121.004 54.0676 121.036 54.1564C121.082 54.2812 121.127 54.2812 121.259 54.1564C121.372 54.0504 121.878 54 122.829 54C124.123 54 124.239 53.9804 124.312 53.75C124.413 53.4324 124.586 53.4292 124.685 53.7432C124.743 53.9236 124.898 53.996 125.288 54.0244C125.782 54.0604 125.811 54.084 125.786 54.4244C125.762 54.7728 125.309 55.8712 125.138 56C125.092 56.0344 124.811 56.5408 124.514 57.1252C123.68 58.76 123.588 58.9264 123.425 59.0908C123.342 59.1752 123.198 59.4144 123.106 59.6224C123.014 59.83 122.896 60 122.844 60C122.792 60 122.75 60.0624 122.75 60.1384C122.75 60.2148 122.48 60.6224 122.15 61.0448C121.82 61.4672 121.461 61.9532 121.352 62.1252C121.243 62.2968 121.028 62.578 120.875 62.75C120.722 62.922 120.448 63.2592 120.267 63.5C119.162 64.9664 115.392 68.5276 113.312 70.0696C112.762 70.4776 112.284 70.8416 112.25 70.8792C112.043 71.1048 108.689 73.25 108.544 73.25C108.513 73.25 108.195 73.4348 107.838 73.6608C106.594 74.4464 102.712 76.3108 100.705 77.0872C100.077 77.33 99.422 77.5868 99.25 77.6572C99.078 77.728 97.9812 78.1112 96.8124 78.5084C95.6436 78.906 94.6876 79.2812 94.6876 79.342C94.6876 79.4324 95.3148 80.2252 95.9376 80.9224C98.0736 83.3136 100.664 88.6812 101.375 92.1876C101.458 92.6 101.6 93.3032 101.69 93.75C102.611 98.3208 102.164 105.314 100.57 111.312C99.896 113.846 98.5056 117.93 97.6336 119.938C97.4904 120.267 97.0656 121.228 96.7356 121.969C96.59 122.295 96.3856 122.759 96.2812 123C95.8512 123.991 93.866 127.895 93.23 129C92.854 129.653 92.5056 130.272 92.4556 130.375C92.406 130.478 92.2972 130.676 92.214 130.815C92.1308 130.954 91.8944 131.348 91.6892 131.69C91.4836 132.032 91.2588 132.41 91.1892 132.528C89.2504 135.827 84.7372 142.332 84.2912 142.469C84.12 142.522 84.186 142.127 84.4428 141.562C84.864 140.637 86.39 136.21 86.92 134.375C87.7696 131.434 88.2428 129.637 88.5656 128.125C88.6756 127.609 88.816 126.991 88.8772 126.75C88.9388 126.509 89.0784 125.806 89.1876 125.188C89.2968 124.569 89.4364 123.809 89.498 123.5C90.3184 119.362 90.6784 112.689 90.3168 108.312C90.1272 106.016 89.902 104.144 89.794 103.97C89.7568 103.91 89.6792 103.569 89.6212 103.212C88.9 98.7608 86.4112 93.1212 83.7084 89.8124C82.6028 88.4592 81.0904 86.8752 80.904 86.8752C79.8556 86.8752 74 95.3748 74 96.8972C74 96.9948 73.9516 97.1284 73.892 97.1936C73.7792 97.3176 73.156 99.0384 72.9888 99.6876C72.936 99.8936 72.8024 100.372 72.6928 100.75C72.5832 101.128 72.4444 101.662 72.3852 101.938C72.3256 102.212 72.1836 102.859 72.07 103.375C71.0256 108.107 71.0228 115.78 72.0632 122.312C72.1728 123 72.3104 123.872 72.3692 124.25C72.4284 124.628 72.5396 125.219 72.6168 125.562C72.694 125.906 72.8148 126.469 72.8856 126.812C73.0116 127.425 73.2876 128.632 73.5 129.5C73.5588 129.741 73.7 130.331 73.8136 130.812C73.9272 131.294 74.066 131.8 74.1212 131.938C74.1768 132.075 74.3212 132.553 74.4424 133C75.204 135.814 76.6048 139.995 77.3116 141.562C77.4048 141.769 77.5228 142.106 77.574 142.312L77.6676 142.687L77.2996 142.312C76.5712 141.57 72.0256 135.088 71.2928 133.746C71.0636 133.326 70.89 133.041 70.306 132.125C70.0628 131.744 69.8344 131.34 69.0324 129.875C68.9384 129.703 68.7448 129.366 68.6024 129.125C67.9988 128.106 65.5 123.23 65.5 123.07C65.5 123.04 65.2752 122.53 65 121.938C64.7252 121.345 64.5 120.835 64.5 120.804C64.5 120.773 64.392 120.509 64.2596 120.217C64.1276 119.926 63.784 119.069 63.496 118.312C63.2084 117.556 62.924 116.825 62.8644 116.688C62.7596 116.445 62.5008 115.661 61.8292 113.546C59.6484 106.684 59.0324 99.2712 60.1528 93.3752C60.5164 91.462 60.8668 90.0912 61.0356 89.9228C61.0848 89.8736 61.1252 89.7412 61.1252 89.6284C61.1252 89.3704 61.8668 87.5196 62.5296 86.1252C63.3644 84.3672 65.4032 81.3092 66.684 79.894C67.2296 79.2908 67.192 79.2424 65.8124 78.7876C63.7532 78.1084 61.3204 77.2236 61.1936 77.1084C61.1284 77.0488 61.0052 77 60.92 77C60.8344 77 60.28 76.7752 59.6876 76.5C59.0948 76.2252 58.5812 76 58.546 76C58.5108 76 57.7688 75.6504 56.8972 75.2232C55.4968 74.5364 54.9604 74.2512 53.226 73.27C48.9028 70.8244 44.3308 66.9924 41.3912 63.3512C39.9696 61.5896 39.0736 60.408 39.0152 60.2172C38.9896 60.132 38.8712 59.95 38.7532 59.8124C38.6348 59.6752 38.3504 59.2252 38.1212 58.8124C37.8916 58.4 37.6716 58.0344 37.6316 58C37.444 57.8376 35.8752 54.6164 35.8752 54.3932C35.8752 54.254 35.8172 54.104 35.746 54.06C35.6716 54.014 35.6512 53.8008 35.6976 53.5528C35.75 53.2744 35.7292 53.1252 35.6388 53.1252C35.5624 53.1252 35.5 53.1844 35.5 53.2572C35.5 53.33 35.4436 53.3548 35.3752 53.3124C35.3064 53.27 35.25 53.1012 35.25 52.9376C35.25 52.7736 35.1936 52.6048 35.1252 52.5624C34.9636 52.4628 34.9624 52.1252 35.1232 52.1252C35.1912 52.1252 35.3288 52.322 35.4296 52.5624C35.6152 53.0076 35.8752 53.1532 35.8752 52.8124C35.8752 52.5608 36.3332 52.5728 36.4764 52.828C36.5988 53.0468 37.068 53.0848 38.9688 53.03L40 53V52.5C40 52.046 40.0296 52 40.322 52C40.6256 52 40.642 52.0324 40.6092 52.564ZM47 52.5V53H46.5C46.0884 53 46 52.9572 46 52.7572C46 52.624 45.9436 52.48 45.8752 52.4376C45.5212 52.2188 45.7712 52 46.3752 52H47V52.5ZM116.25 52.5C116.25 52.7752 116.194 53 116.125 53C116.056 53 116 52.7752 116 52.5C116 52.2252 116.056 52 116.125 52C116.194 52 116.25 52.2252 116.25 52.5ZM126.394 52.164C126.315 52.26 126.29 52.5276 126.336 52.8084C126.429 53.3828 126.198 53.3332 126.082 52.754C125.99 52.292 126.09 52 126.341 52C126.484 52 126.497 52.0408 126.394 52.164ZM48.75 52.3884C48.75 52.4644 48.828 52.4968 48.9236 52.46C49.0448 52.4136 49.092 52.4852 49.08 52.6968C49.0648 52.9616 49.002 53 48.5864 53C48.3008 53 48.1412 52.95 48.1876 52.8752C48.23 52.8064 48.3524 52.75 48.4596 52.75C48.5928 52.75 48.6336 52.6708 48.5888 52.5C48.5528 52.3624 48.5744 52.25 48.6368 52.25C48.6992 52.25 48.75 52.3124 48.75 52.3884ZM43 52.6876C43 52.8228 42.8612 52.8752 42.5 52.8752C42.1388 52.8752 42 52.8228 42 52.6876C42 52.552 42.1388 52.5 42.5 52.5C42.8612 52.5 43 52.552 43 52.6876ZM120 52.8752C120 52.9436 119.775 53 119.5 53C119.225 53 119 52.9436 119 52.8752C119 52.8064 119.225 52.75 119.5 52.75C119.775 52.75 120 52.8064 120 52.8752Z" fill="#E6DDF1"/>
</svg>
