<svg width="200" height="100" viewBox="0 0 200 100" fill="none" xmlns="http://www.w3.org/2000/svg">
<rect width="200" height="100" fill="#9DEAA5"/>
<path d="M29.4902 53.9316L29.9824 57.3066L30.7031 54.2656L35.7656 36.4062H38.6133L43.5527 54.2656L44.2559 57.3594L44.8008 53.9141L48.7734 36.4062H52.166L45.9609 62H42.8848L37.6113 43.3496L37.207 41.3984L36.8027 43.3496L31.3359 62H28.2598L22.0723 36.4062H25.4473L29.4902 53.9316ZM62.748 62.3516C60.1699 62.3516 58.0723 61.5078 56.4551 59.8203C54.8379 58.1211 54.0293 55.8535 54.0293 53.0176V52.4199C54.0293 50.5332 54.3867 48.8516 55.1016 47.375C55.8281 45.8867 56.8359 44.7266 58.125 43.8945C59.4258 43.0508 60.832 42.6289 62.3438 42.6289C64.8164 42.6289 66.7383 43.4434 68.1094 45.0723C69.4805 46.7012 70.166 49.0332 70.166 52.0684V53.4219H57.2812C57.3281 55.2969 57.873 56.8145 58.916 57.9746C59.9707 59.123 61.3066 59.6973 62.9238 59.6973C64.0723 59.6973 65.0449 59.4629 65.8418 58.9941C66.6387 58.5254 67.3359 57.9043 67.9336 57.1309L69.9199 58.6777C68.3262 61.127 65.9355 62.3516 62.748 62.3516ZM62.3438 45.3008C61.0312 45.3008 59.9297 45.7812 59.0391 46.7422C58.1484 47.6914 57.5977 49.0273 57.3867 50.75H66.9141V50.5039C66.8203 48.8516 66.375 47.5742 65.5781 46.6719C64.7812 45.7578 63.7031 45.3008 62.3438 45.3008ZM81.8379 62.3516C79.2598 62.3516 77.1621 61.5078 75.5449 59.8203C73.9277 58.1211 73.1191 55.8535 73.1191 53.0176V52.4199C73.1191 50.5332 73.4766 48.8516 74.1914 47.375C74.918 45.8867 75.9258 44.7266 77.2148 43.8945C78.5156 43.0508 79.9219 42.6289 81.4336 42.6289C83.9062 42.6289 85.8281 43.4434 87.1992 45.0723C88.5703 46.7012 89.2559 49.0332 89.2559 52.0684V53.4219H76.3711C76.418 55.2969 76.9629 56.8145 78.0059 57.9746C79.0605 59.123 80.3965 59.6973 82.0137 59.6973C83.1621 59.6973 84.1348 59.4629 84.9316 58.9941C85.7285 58.5254 86.4258 57.9043 87.0234 57.1309L89.0098 58.6777C87.416 61.127 85.0254 62.3516 81.8379 62.3516ZM81.4336 45.3008C80.1211 45.3008 79.0195 45.7812 78.1289 46.7422C77.2383 47.6914 76.6875 49.0273 76.4766 50.75H86.0039V50.5039C85.9102 48.8516 85.4648 47.5742 84.668 46.6719C83.8711 45.7578 82.793 45.3008 81.4336 45.3008ZM98.3438 53.1934L96.3047 55.3203V62H93.0527V35H96.3047V51.3301L98.0449 49.2383L103.969 42.9805H107.924L100.523 50.9258L108.785 62H104.971L98.3438 53.1934ZM118.822 62.3516C116.244 62.3516 114.146 61.5078 112.529 59.8203C110.912 58.1211 110.104 55.8535 110.104 53.0176V52.4199C110.104 50.5332 110.461 48.8516 111.176 47.375C111.902 45.8867 112.91 44.7266 114.199 43.8945C115.5 43.0508 116.906 42.6289 118.418 42.6289C120.891 42.6289 122.812 43.4434 124.184 45.0723C125.555 46.7012 126.24 49.0332 126.24 52.0684V53.4219H113.355C113.402 55.2969 113.947 56.8145 114.99 57.9746C116.045 59.123 117.381 59.6973 118.998 59.6973C120.146 59.6973 121.119 59.4629 121.916 58.9941C122.713 58.5254 123.41 57.9043 124.008 57.1309L125.994 58.6777C124.4 61.127 122.01 62.3516 118.822 62.3516ZM118.418 45.3008C117.105 45.3008 116.004 45.7812 115.113 46.7422C114.223 47.6914 113.672 49.0273 113.461 50.75H122.988V50.5039C122.895 48.8516 122.449 47.5742 121.652 46.6719C120.855 45.7578 119.777 45.3008 118.418 45.3008ZM133.096 42.9805L133.201 45.3711C134.654 43.543 136.553 42.6289 138.896 42.6289C142.916 42.6289 144.943 44.8965 144.979 49.4316V62H141.727V49.4141C141.715 48.043 141.398 47.0293 140.777 46.373C140.168 45.7168 139.213 45.3887 137.912 45.3887C136.857 45.3887 135.932 45.6699 135.135 46.2324C134.338 46.7949 133.717 47.5332 133.271 48.4473V62H130.02V42.9805H133.096ZM149.092 52.332C149.092 49.4141 149.783 47.0703 151.166 45.3008C152.549 43.5195 154.359 42.6289 156.598 42.6289C158.824 42.6289 160.588 43.3906 161.889 44.9141V35H165.141V62H162.152L161.994 59.9609C160.693 61.5547 158.883 62.3516 156.562 62.3516C154.359 62.3516 152.561 61.4492 151.166 59.6445C149.783 57.8398 149.092 55.4844 149.092 52.5781V52.332ZM152.344 52.7012C152.344 54.8574 152.789 56.5449 153.68 57.7637C154.57 58.9824 155.801 59.5918 157.371 59.5918C159.434 59.5918 160.939 58.666 161.889 56.8145V48.0781C160.916 46.2852 159.422 45.3887 157.406 45.3887C155.812 45.3887 154.57 46.0039 153.68 47.2344C152.789 48.4648 152.344 50.2871 152.344 52.7012Z" fill="white"/>
</svg>
