<svg width="545" height="76" viewBox="0 0 545 76" fill="none" xmlns="http://www.w3.org/2000/svg">
<g clip-path="url(#clip0)">
<path d="M191.277 0H300.456C300.537 4.86894 300.204 9.73596 299.462 14.5486C296.057 36.5842 284.767 52.4458 277.146 61.2343H216.439C212.008 57.4422 208.064 53.1146 204.698 48.3505C203.252 46.2992 197.787 38.3301 194.286 26.3467C191.798 17.7988 190.78 8.88951 191.277 0Z" fill="white"/>
<path d="M299.85 7.38285C305.874 2.08747 313.932 1.25508 319.153 4.84807C324.079 8.2384 324.834 14.4313 324.919 15.2304C325.471 20.3926 323.056 24.2534 322.4 25.4709C320.508 28.9828 317.794 31.0471 314.021 34.019L313.656 34.3086C310.556 36.6876 307.241 38.7716 303.754 40.5333C294.275 45.3713 272.085 57.317 271.94 57.0362C271.893 56.9421 274.344 55.5466 285.678 49.6533L289.366 41.04L299.994 35.7562C303.516 33.921 306.816 31.6867 309.828 29.0971C314.221 25.3116 316.838 22.9882 317.347 19.2533C317.7 16.6679 317.141 12.6942 314.311 10.8571C311.099 8.77112 306.924 10.7124 305.056 11.5809C300.67 13.6206 298.493 17.2571 297.681 18.819" fill="white"/>
<path d="M186 61.2343H305.735C305.416 63.8783 304.475 66.4086 302.988 68.6171C298.866 74.6754 292.053 75.8031 290.696 76H202.63C201.386 75.9609 194.945 75.6337 190.194 70.3543C187.009 66.8149 186.23 62.8802 186 61.2343Z" fill="white"/>
<path opacity="0.5" d="M285.678 50.0876C258.781 48.2144 243.578 39.2797 234.487 30.6895C223.861 20.6488 209.868 0 209.866 0H191.105C190.764 7.9435 191.593 15.8939 193.563 23.5962C195.95 32.9015 199.424 39.5084 200.793 41.981C205 49.5795 209.415 54.4305 210.627 55.7333C212.441 57.6834 214.373 59.5204 216.411 61.2343H277.146C277.745 60.5409 278.542 59.6072 279.46 58.4838C280.438 57.291 281.638 55.8187 283.075 53.8514C283.785 52.8801 284.682 51.612 285.678 50.0876Z" fill="#D8CFBA"/>
<path d="M188.791 69.4857L302.308 69.6305C301.78 70.3022 301.199 70.9314 300.573 71.5124C297.16 74.6725 293.144 75.654 290.739 76H201.95C200.324 75.8574 198.722 75.5171 197.178 74.9867C193.976 73.8663 191.096 71.9776 188.791 69.4857Z" fill="#D8CFBA"/>
</g>
<path d="M7.488 4.944H38.376V11.64H14.472V28.2H35.424V34.896H14.472V57H7.488V4.944ZM52.6596 27.192L53.1636 34.176C53.9796 32.496 55.1076 31.056 56.5476 29.856C57.9876 28.608 59.4756 27.672 61.0116 27.048C62.5956 26.376 63.9636 26.016 65.1156 25.968L64.8276 32.664C62.5716 32.568 60.5796 33.024 58.8516 34.032C57.1236 34.992 55.7796 36.312 54.8196 37.992C53.8596 39.672 53.3796 41.472 53.3796 43.392V57H46.6836V27.192H52.6596ZM86.3123 57.72C82.9523 57.72 80.0243 57.048 77.5283 55.704C75.0803 54.312 73.1843 52.416 71.8403 50.016C70.5443 47.616 69.8963 44.904 69.8963 41.88C69.8963 38.952 70.6163 36.288 72.0563 33.888C73.5443 31.44 75.5363 29.52 78.0323 28.128C80.5763 26.688 83.3843 25.968 86.4563 25.968C90.3923 25.968 93.6563 27.12 96.2483 29.424C98.8403 31.728 100.616 34.896 101.576 38.928L77.9603 47.208C78.7763 48.696 79.9283 49.872 81.4163 50.736C82.9043 51.552 84.5843 51.96 86.4563 51.96C87.8003 51.96 89.0723 51.72 90.2723 51.24C91.4723 50.76 92.6243 50.136 93.7283 49.368L96.8243 54.336C95.2883 55.344 93.5843 56.16 91.7123 56.784C89.8883 57.408 88.0883 57.72 86.3123 57.72ZM76.5203 41.52C76.4723 42.096 76.4963 42.648 76.5923 43.176L93.9443 36.768C93.2723 35.328 92.2883 34.056 90.9923 32.952C89.7443 31.848 88.0643 31.296 85.9523 31.296C83.2163 31.296 80.9603 32.256 79.1843 34.176C77.4083 36.096 76.5203 38.544 76.5203 41.52ZM118.319 57.576C116.159 57.576 114.071 57.216 112.055 56.496C110.087 55.728 108.455 54.6 107.159 53.112L110.039 49.224C111.239 50.424 112.511 51.336 113.855 51.96C115.199 52.536 116.495 52.824 117.743 52.824C119.183 52.824 120.431 52.536 121.487 51.96C122.591 51.384 123.143 50.4 123.143 49.008C123.143 47.952 122.783 47.112 122.062 46.488C121.391 45.864 120.503 45.384 119.399 45.048C118.343 44.664 117.239 44.28 116.087 43.896C110.999 42.264 108.455 39.36 108.455 35.184C108.455 33.648 108.839 32.184 109.607 30.792C110.423 29.4 111.599 28.272 113.135 27.408C114.719 26.544 116.663 26.112 118.967 26.112C121.031 26.112 122.879 26.376 124.511 26.904C126.143 27.432 127.679 28.272 129.119 29.424L126.455 33.528C125.591 32.664 124.559 32.016 123.359 31.584C122.207 31.104 121.151 30.84 120.191 30.792C118.895 30.792 117.743 31.104 116.735 31.728C115.775 32.352 115.295 33.216 115.295 34.32C115.247 35.328 115.559 36.144 116.231 36.768C116.903 37.344 117.767 37.824 118.823 38.208C119.927 38.592 121.031 38.952 122.135 39.288C124.295 40.008 126.119 40.992 127.607 42.24C129.143 43.488 129.911 45.312 129.911 47.712C129.911 50.4 128.951 52.728 127.031 54.696C125.111 56.616 122.207 57.576 118.319 57.576ZM139.285 57V1.2H145.837V32.592C146.893 30.672 148.453 29.112 150.517 27.912C152.581 26.664 155.005 26.04 157.789 26.04C160.573 26.04 162.853 26.88 164.629 28.56C166.453 30.192 167.413 32.328 167.509 34.968V57H160.741V37.272C160.645 35.688 160.141 34.392 159.229 33.384C158.365 32.376 156.997 31.848 155.125 31.8C153.397 31.8 151.837 32.304 150.445 33.312C149.101 34.272 148.021 35.592 147.205 37.272C146.389 38.952 145.981 40.872 145.981 43.032V57H139.285Z" fill="black"/>
<path d="M373.744 4.944V57H366.688V34.176H339.472V57H332.488V4.944H339.472V27.48H366.688V4.944H373.744ZM384.49 41.808C384.49 38.832 385.186 36.144 386.578 33.744C388.018 31.344 389.986 29.448 392.482 28.056C394.978 26.664 397.834 25.968 401.05 25.968C404.266 25.968 407.098 26.664 409.546 28.056C411.994 29.448 413.89 31.344 415.234 33.744C416.626 36.144 417.322 38.832 417.322 41.808C417.322 44.784 416.626 47.472 415.234 49.872C413.89 52.272 411.97 54.192 409.474 55.632C407.026 57.024 404.17 57.72 400.906 57.72C397.738 57.72 394.906 57.072 392.41 55.776C389.962 54.48 388.018 52.632 386.578 50.232C385.186 47.832 384.49 45.024 384.49 41.808ZM391.258 41.88C391.258 43.8 391.666 45.552 392.482 47.136C393.346 48.672 394.498 49.896 395.938 50.808C397.378 51.72 399.01 52.176 400.834 52.176C402.706 52.176 404.362 51.72 405.802 50.808C407.242 49.896 408.37 48.672 409.186 47.136C410.05 45.552 410.482 43.8 410.482 41.88C410.482 39.96 410.05 38.232 409.186 36.696C408.37 35.112 407.242 33.864 405.802 32.952C404.362 31.992 402.706 31.512 400.834 31.512C399.01 31.512 397.354 31.992 395.866 32.952C394.426 33.912 393.298 35.184 392.482 36.768C391.666 38.304 391.258 40.008 391.258 41.88ZM435.82 58.152C433.084 58.152 430.828 57.336 429.052 55.704C427.276 54.024 426.364 51.864 426.316 49.224V27.192H433.012V46.848C433.108 48.48 433.588 49.8 434.452 50.808C435.316 51.816 436.66 52.344 438.484 52.392C440.116 52.392 441.604 51.912 442.948 50.952C444.292 49.944 445.348 48.6 446.116 46.92C446.932 45.192 447.34 43.248 447.34 41.088V27.192H454.036V57H447.988L447.484 51.384C446.524 53.352 444.988 54.984 442.876 56.28C440.812 57.528 438.46 58.152 435.82 58.152ZM474.115 57.576C471.955 57.576 469.867 57.216 467.851 56.496C465.883 55.728 464.251 54.6 462.955 53.112L465.835 49.224C467.035 50.424 468.307 51.336 469.651 51.96C470.995 52.536 472.291 52.824 473.539 52.824C474.979 52.824 476.227 52.536 477.283 51.96C478.387 51.384 478.939 50.4 478.939 49.008C478.939 47.952 478.579 47.112 477.859 46.488C477.187 45.864 476.299 45.384 475.195 45.048C474.139 44.664 473.035 44.28 471.883 43.896C466.795 42.264 464.251 39.36 464.251 35.184C464.251 33.648 464.635 32.184 465.403 30.792C466.219 29.4 467.395 28.272 468.931 27.408C470.515 26.544 472.459 26.112 474.763 26.112C476.827 26.112 478.675 26.376 480.307 26.904C481.939 27.432 483.475 28.272 484.915 29.424L482.251 33.528C481.387 32.664 480.355 32.016 479.155 31.584C478.003 31.104 476.947 30.84 475.987 30.792C474.691 30.792 473.539 31.104 472.531 31.728C471.571 32.352 471.091 33.216 471.091 34.32C471.043 35.328 471.355 36.144 472.027 36.768C472.699 37.344 473.563 37.824 474.619 38.208C475.723 38.592 476.827 38.952 477.931 39.288C480.091 40.008 481.915 40.992 483.403 42.24C484.939 43.488 485.707 45.312 485.707 47.712C485.707 50.4 484.747 52.728 482.827 54.696C480.907 56.616 478.003 57.576 474.115 57.576ZM508.906 57.72C505.546 57.72 502.618 57.048 500.122 55.704C497.674 54.312 495.778 52.416 494.434 50.016C493.138 47.616 492.49 44.904 492.49 41.88C492.49 38.952 493.21 36.288 494.65 33.888C496.138 31.44 498.13 29.52 500.626 28.128C503.17 26.688 505.978 25.968 509.05 25.968C512.986 25.968 516.25 27.12 518.842 29.424C521.434 31.728 523.21 34.896 524.17 38.928L500.554 47.208C501.37 48.696 502.522 49.872 504.01 50.736C505.498 51.552 507.178 51.96 509.05 51.96C510.394 51.96 511.666 51.72 512.866 51.24C514.066 50.76 515.218 50.136 516.322 49.368L519.418 54.336C517.882 55.344 516.178 56.16 514.306 56.784C512.482 57.408 510.682 57.72 508.906 57.72ZM499.114 41.52C499.066 42.096 499.09 42.648 499.186 43.176L516.538 36.768C515.866 35.328 514.882 34.056 513.586 32.952C512.338 31.848 510.658 31.296 508.546 31.296C505.81 31.296 503.554 32.256 501.778 34.176C500.002 36.096 499.114 38.544 499.114 41.52Z" fill="black"/>
<defs>
<clipPath id="clip0">
<rect width="139" height="76" fill="white" transform="translate(186)"/>
</clipPath>
</defs>
</svg>
