<svg width="30" height="30" fill="none" xmlns="http://www.w3.org/2000/svg"><g clip-path="url(#clip0)"><path d="M29.327 23.709l-4.633-4.634c-.923-.919-2.451-.89-3.406.064l-2.334 2.334c-.148-.081-.3-.166-.46-.256-1.475-.817-3.492-1.936-5.615-4.06-2.13-2.13-3.25-4.15-4.069-5.625-.086-.156-.17-.307-.251-.45l1.567-1.564.77-.771c.956-.957.983-2.485.062-3.407L6.325.706c-.92-.92-2.45-.892-3.406.064L1.613 2.084l.036.035A7.55 7.55 0 00.573 4.017a7.869 7.869 0 00-.479 1.925C-.518 11.014 1.8 15.649 8.09 21.938c8.694 8.694 15.7 8.037 16.003 8.005a7.832 7.832 0 001.93-.485 7.524 7.524 0 001.89-1.071l.03.025 1.322-1.295c.955-.957.982-2.485.062-3.408z" fill="#000"/></g><defs><clipPath id="clip0"><path fill="#fff" d="M0 0h30v30H0z"/></clipPath></defs></svg>