<svg width="20" height="21" fill="none" xmlns="http://www.w3.org/2000/svg"><g clip-path="url(#clip0)" fill="#fff"><path d="M14.48.719H5.52A5.525 5.525 0 000 6.238v8.961a5.525 5.525 0 005.52 5.52h8.96a5.526 5.526 0 005.52-5.52V6.238a5.526 5.526 0 00-5.52-5.52zm3.745 14.48a3.749 3.749 0 01-3.744 3.745H5.519A3.749 3.749 0 011.774 15.2V6.238A3.749 3.749 0 015.52 2.493h8.961a3.75 3.75 0 013.745 3.745v8.961z"/><path d="M10 5.565a5.16 5.16 0 00-5.154 5.154A5.16 5.16 0 0010 15.872a5.16 5.16 0 005.153-5.153A5.16 5.16 0 0010 5.565zm0 8.533a3.383 3.383 0 01-3.379-3.38A3.383 3.383 0 0110 7.34a3.383 3.383 0 013.379 3.379A3.383 3.383 0 0110 14.098zM15.37 4.061a1.307 1.307 0 00-1.302 1.301c0 .342.14.678.382.92s.578.382.92.382c.343 0 .677-.14.92-.381a1.307 1.307 0 000-1.84 1.307 1.307 0 00-.92-.382z"/></g><defs><clipPath id="clip0"><path fill="#fff" transform="translate(0 .719)" d="M0 0h20v20H0z"/></clipPath></defs></svg>